<svg xmlns="http://www.w3.org/2000/svg" viewBox="0 0 256 256" width="256" height="256"><g transform="translate(22.510126420178633 169.62753507014554) scale(2.762715566969452)"><path d="M42.6 -2.3 L49.6 -6.3 L56.6 -2.3 L49.6 1.7 Z" fill="#adad92"></path><path d="M26.8 9.4 L33.8 5.4 L40.8 9.4 L33.8 13.4 Z" fill="#adad92"></path><path d="M9.7 -2.5 L16.7 -6.5 L23.7 -2.5 L16.7 1.5 Z" fill="#adad92"></path><path d="M26.9 9.1 L33.9 5.1 L40.9 9.1 L33.9 13.1 Z" fill="#adad92"></path><path d="M42.7 4.3 L49.7 0.3 L56.7 4.3 L49.7 8.3 Z" fill="#adad92"></path><path d="M25.1 2.8 L32.1 -1.2 L39.1 2.8 L32.1 6.8 Z" fill="#adad92"></path><path d="M39.2 9.7 L46.2 5.7 L53.2 9.7 L46.2 13.7 Z" fill="#adad92"></path><path d="M41.7 -3.9 L48.7 -7.9 L55.7 -3.9 L48.7 0.1 Z" fill="#adad92"></path><path d="M21.7 -15.3 L24.8 -13.6 L24.8 -22.5 L21.7 -24.2 Z" fill="#69727d" stroke="#616872" stroke-width="0.6" stroke-linejoin="round" stroke-linecap="round"></path><path d="M20.7 -17.8 L25.8 -15.9 L25.8 -17.5 L20.7 -19.5 Z" fill="#ac9b87" stroke="#8a7e73" stroke-width="0.6" stroke-linejoin="round" stroke-linecap="round"></path><path d="M20.7 -21.7 L25.8 -19.7 L25.8 -21.4 L20.7 -23.3 Z" fill="#ac9b87" stroke="#8a7e73" stroke-width="0.6" stroke-linejoin="round" stroke-linecap="round"></path><path d="M44.3 -3.3 L47.4 -1.6 L47.4 -10.5 L44.3 -12.2 Z" fill="#69727d" stroke="#616872" stroke-width="0.6" stroke-linejoin="round" stroke-linecap="round"></path><path d="M43.3 -5.8 L48.4 -3.9 L48.4 -5.6 L43.3 -7.5 Z" fill="#ac9b87" stroke="#8a7e73" stroke-width="0.6" stroke-linejoin="round" stroke-linecap="round"></path><path d="M43.3 -9.7 L48.4 -7.7 L48.4 -9.4 L43.3 -11.4 Z" fill="#ac9b87" stroke="#8a7e73" stroke-width="0.6" stroke-linejoin="round" stroke-linecap="round"></path><path d="M53.7 -2.6 L56.7 -4.2 L56.7 -13.1 L53.7 -11.5 Z" fill="#69727d" stroke="#616872" stroke-width="0.6" stroke-linejoin="round" stroke-linecap="round"></path><path d="M52.8 -4.1 L57.6 -7.4 L57.6 -9.1 L52.8 -5.8 Z" fill="#ac9b87" stroke="#8a7e73" stroke-width="0.6" stroke-linejoin="round" stroke-linecap="round"></path><path d="M52.8 -8 L57.6 -11.3 L57.6 -13 L52.8 -9.7 Z" fill="#ac9b87" stroke="#8a7e73" stroke-width="0.6" stroke-linejoin="round" stroke-linecap="round"></path><path d="M63.1 -7.6 L65.9 -9.1 L65.9 -17.9 L63.1 -16.4 Z" fill="#69727d" stroke="#616872" stroke-width="0.6" stroke-linejoin="round" stroke-linecap="round"></path><path d="M62.3 -9.2 L66.7 -12.2 L66.7 -13.9 L62.3 -10.8 Z" fill="#ac9b87" stroke="#8a7e73" stroke-width="0.6" stroke-linejoin="round" stroke-linecap="round"></path><path d="M62.3 -13 L66.7 -16.1 L66.7 -17.8 L62.3 -14.7 Z" fill="#ac9b87" stroke="#8a7e73" stroke-width="0.6" stroke-linejoin="round" stroke-linecap="round"></path><path d="M32.8 -5.9 L37.1 -5.5 L37.1 -8.9 L32.8 -9.3 Z" fill="#ac9b87" stroke="#8a7e73" stroke-width="0.6" stroke-linejoin="round" stroke-linecap="round"></path><path d="M28.3 -35.2 L31.6 -38.3 L34.8 -35.3 L31.9 -32.3 Z" fill="#5d6169" stroke="#b7bcc7" stroke-width="0.6" stroke-linejoin="round" stroke-linecap="round"></path><path d="M42.5 -38.1 L45.9 -41.3 L49.1 -38.3 L46.2 -35.2 Z" fill="#5d6169" stroke="#b7bcc7" stroke-width="0.6" stroke-linejoin="round" stroke-linecap="round"></path><path d="M47.1 -29.8 L50.4 -33 L53.6 -30 L50.7 -26.9 Z" fill="#5d6169" stroke="#b7bcc7" stroke-width="0.6" stroke-linejoin="round" stroke-linecap="round"></path><path d="M36.7 11.3 L38.8 2.7 L38.9 11.3 Z" fill="#849387" stroke="#6c7970" stroke-width="0.5" stroke-linejoin="round" stroke-linecap="round"></path><path d="M36.2 12.6 L37.7 6.9 L38.4 12.6 Z" fill="#849387" stroke="#6c7970" stroke-width="0.5" stroke-linejoin="round" stroke-linecap="round"></path><path d="M40.2 14 L40.5 9 L42.4 14 Z" fill="#849387" stroke="#6c7970" stroke-width="0.5" stroke-linejoin="round" stroke-linecap="round"></path><path d="M36.1 13.3 L35.8 8.5 L38.3 13.3 Z" fill="#849387" stroke="#6c7970" stroke-width="0.5" stroke-linejoin="round" stroke-linecap="round"></path><path d="M35.2 11.9 L36.5 6.3 L37.4 11.9 Z" fill="#849387" stroke="#6c7970" stroke-width="0.5" stroke-linejoin="round" stroke-linecap="round"></path><path d="M34.9 13.9 L35.3 8.9 L37.1 13.9 Z" fill="#849387" stroke="#6c7970" stroke-width="0.5" stroke-linejoin="round" stroke-linecap="round"></path><path d="M34.2 14.8 L35.6 8 L36.4 14.8 Z" fill="#849387" stroke="#6c7970" stroke-width="0.5" stroke-linejoin="round" stroke-linecap="round"></path><path d="M37.9 11.3 L38.8 5.1 L40.1 11.3 Z" fill="#849387" stroke="#6c7970" stroke-width="0.5" stroke-linejoin="round" stroke-linecap="round"></path><path d="M39.2 14.2 L40.5 6.7 L41.4 14.2 Z" fill="#849387" stroke="#6c7970" stroke-width="0.5" stroke-linejoin="round" stroke-linecap="round"></path><path d="M36.8 14.4 L37.8 7.7 L39 14.4 Z" fill="#849387" stroke="#6c7970" stroke-width="0.5" stroke-linejoin="round" stroke-linecap="round"></path><path d="M17.8 -2 L20.3 -10 L20 -2 Z" fill="#7f8e83" stroke="#68756c" stroke-width="0.5" stroke-linejoin="round" stroke-linecap="round"></path><path d="M26.3 0.7 L28.8 -3.9 L28.5 0.7 Z" fill="#7f8e83" stroke="#68756c" stroke-width="0.5" stroke-linejoin="round" stroke-linecap="round"></path><path d="M25.1 0.8 L27.6 -5.2 L27.3 0.8 Z" fill="#7f8e83" stroke="#68756c" stroke-width="0.5" stroke-linejoin="round" stroke-linecap="round"></path><path d="M25.9 0.2 L27 -6.9 L28.1 0.2 Z" fill="#7f8e83" stroke="#68756c" stroke-width="0.5" stroke-linejoin="round" stroke-linecap="round"></path><path d="M24.1 -4.3 L24.6 -11.8 L26.3 -4.3 Z" fill="#7f8e83" stroke="#68756c" stroke-width="0.5" stroke-linejoin="round" stroke-linecap="round"></path><path d="M22.2 -0.4 L23.2 -9.1 L24.4 -0.4 Z" fill="#7f8e83" stroke="#68756c" stroke-width="0.5" stroke-linejoin="round" stroke-linecap="round"></path><path d="M25.1 -2.3 L27.7 -6.7 L27.3 -2.3 Z" fill="#7f8e83" stroke="#68756c" stroke-width="0.5" stroke-linejoin="round" stroke-linecap="round"></path><path d="M63.8 3.5 L65.7 -2.9 L66 3.5 Z" fill="#7f8e83" stroke="#68756c" stroke-width="0.5" stroke-linejoin="round" stroke-linecap="round"></path><path d="M61.8 8.1 L62.5 0.3 L64 8.1 Z" fill="#7f8e83" stroke="#68756c" stroke-width="0.5" stroke-linejoin="round" stroke-linecap="round"></path><path d="M61.3 7.9 L62.4 1.6 L63.5 7.9 Z" fill="#7f8e83" stroke="#68756c" stroke-width="0.5" stroke-linejoin="round" stroke-linecap="round"></path><path d="M63.7 3.5 L65.5 -3.5 L65.9 3.5 Z" fill="#7f8e83" stroke="#68756c" stroke-width="0.5" stroke-linejoin="round" stroke-linecap="round"></path><path d="M59.7 7 L61.4 -1.5 L61.9 7 Z" fill="#7f8e83" stroke="#68756c" stroke-width="0.5" stroke-linejoin="round" stroke-linecap="round"></path><path d="M64 7.1 L66.4 -0.6 L66.2 7.1 Z" fill="#7f8e83" stroke="#68756c" stroke-width="0.5" stroke-linejoin="round" stroke-linecap="round"></path><path d="M59.2 6.1 L60.5 1.9 L61.4 6.1 Z" fill="#7f8e83" stroke="#68756c" stroke-width="0.5" stroke-linejoin="round" stroke-linecap="round"></path><path d="M26.7 -28 L28.7 -27 L29.9 -16.2 L27.9 -17.2 Z" fill="#a3a6a7" stroke="#8a8d91" stroke-width="0.6" stroke-linejoin="round" stroke-linecap="round"></path></g></svg>