<svg xmlns="http://www.w3.org/2000/svg" viewBox="0 0 256 256" width="256" height="256"><g transform="translate(39.7 182.1) scale(2.3123)"><path d="M46 7 L46 -52 Z" fill="none" stroke="#9fa09c" stroke-width="0.8" stroke-linejoin="round" stroke-linecap="round"></path><path d="M45.1 7 L46.9 7 L46.9 -52 L45.1 -52 Z" fill="#b6b8b2" stroke="#939592" stroke-width="0.5" stroke-linejoin="round" stroke-linecap="round"></path><path d="M55.6 1.9 L55.6 -57.1 Z" fill="none" stroke="#9fa09c" stroke-width="0.8" stroke-linejoin="round" stroke-linecap="round"></path><path d="M54.7 1.9 L56.5 1.9 L56.5 -57.1 L54.7 -57.1 Z" fill="#b6b8b2" stroke="#939592" stroke-width="0.5" stroke-linejoin="round" stroke-linecap="round"></path><path d="M65.1 -3.1 L65.1 -62.1 Z" fill="none" stroke="#9fa09c" stroke-width="0.8" stroke-linejoin="round" stroke-linecap="round"></path><path d="M64.2 -3.1 L66 -3.1 L66 -62.1 L64.2 -62.1 Z" fill="#b6b8b2" stroke="#939592" stroke-width="0.5" stroke-linejoin="round" stroke-linecap="round"></path><path d="M45.6 -52.7 L65.5 -63.2 L65.5 -61.4 L45.6 -50.9 Z" fill="#b6b8b2" stroke="#939592" stroke-width="0.5" stroke-linejoin="round" stroke-linecap="round"></path><path d="M45.6 -38 L65.5 -48.5 L65.5 -46.7 L45.6 -36.2 Z" fill="#b6b8b2" stroke="#939592" stroke-width="0.5" stroke-linejoin="round" stroke-linecap="round"></path><path d="M45.6 -23.2 L65.5 -33.7 L65.5 -31.9 L45.6 -21.4 Z" fill="#b6b8b2" stroke="#939592" stroke-width="0.5" stroke-linejoin="round" stroke-linecap="round"></path><path d="M45.6 -8.5 L65.5 -19 L65.5 -17.2 L45.6 -6.7 Z" fill="#b6b8b2" stroke="#939592" stroke-width="0.5" stroke-linejoin="round" stroke-linecap="round"></path><path d="M55.6 -43.3 L65.1 -63.1 L65.1 -61.1 L55.6 -41.3 Z" fill="#adafaa"></path><path d="M46 -23.5 L55.6 -43.3 L55.6 -41.3 L46 -21.5 Z" fill="#adafaa"></path><path d="M55.6 -13.8 L65.1 -33.6 L65.1 -31.6 L55.6 -11.8 Z" fill="#adafaa"></path><path d="M44.9 -52.8 L55.8 -58.6 L55.8 -55.4 L44.9 -49.6 Z" fill="#c2b199" stroke="#9b9081" stroke-width="0.6" stroke-linejoin="round" stroke-linecap="round"></path><path d="M16 5.3 L25.2 10.1 L25.2 1.1 L16 -5.7 Z" fill="#bd906d" stroke="#8a705d" stroke-width="0.7" stroke-linejoin="round" stroke-linecap="round"></path><path d="M25.2 10.1 L30.9 7.1 L30.9 -1.9 L25.2 1.1 Z" fill="#a58164" stroke="#846c5b" stroke-width="0.7" stroke-linejoin="round" stroke-linecap="round"></path><path d="M16 -5.7 L21.8 -10.3 L30.9 -1.9 L25.2 1.1 Z" fill="#97775f" stroke="#846c5b" stroke-width="0.7" stroke-linejoin="round" stroke-linecap="round"></path><path d="M22.6 -4.7 L25.6 -6.7 L28.6 -4.7 L25.6 -2.7 Z" fill="#aca69e"></path><path d="M20.6 -6.6 L23.6 -8.6 L26.6 -6.6 L23.6 -4.6 Z" fill="#988e85"></path><path d="M17.8 -6.9 L20.8 -8.9 L23.8 -6.9 L20.8 -4.9 Z" fill="#b6b1aa"></path><path d="M23.7 -4.7 L26.7 -6.7 L29.7 -4.7 L26.7 -2.7 Z" fill="#aca69e"></path><path d="M20.9 -5.8 L23.9 -7.8 L26.9 -5.8 L23.9 -3.8 Z" fill="#988e85"></path><path d="M26.7 8.1 L31.3 5.7 L34.7 7.5 L30.2 9.9 Z" fill="#c9bba8" stroke="#8b8277" stroke-width="0.7" stroke-linejoin="round" stroke-linecap="round"></path><path d="M26.7 10.5 L30.2 12.3 L30.2 9.9 L26.7 8.1 Z" fill="#c2b199" stroke="#8b8277" stroke-width="0.7" stroke-linejoin="round" stroke-linecap="round"></path><path d="M30.2 12.3 L34.7 9.9 L34.7 7.5 L30.2 9.9 Z" fill="#a89b89" stroke="#837c72" stroke-width="0.7" stroke-linejoin="round" stroke-linecap="round"></path><path d="M26.7 5.1 L31.3 2.7 L34.7 4.5 L30.2 6.9 Z" fill="#c9bba8" stroke="#8b8277" stroke-width="0.7" stroke-linejoin="round" stroke-linecap="round"></path><path d="M26.7 7.5 L30.2 9.3 L30.2 6.9 L26.7 5.1 Z" fill="#c2b199" stroke="#8b8277" stroke-width="0.7" stroke-linejoin="round" stroke-linecap="round"></path><path d="M30.2 9.3 L34.7 6.9 L34.7 4.5 L30.2 6.9 Z" fill="#a89b89" stroke="#837c72" stroke-width="0.7" stroke-linejoin="round" stroke-linecap="round"></path><path d="M26.7 2.1 L31.3 -0.3 L34.7 1.5 L30.2 3.9 Z" fill="#c9bba8" stroke="#8b8277" stroke-width="0.7" stroke-linejoin="round" stroke-linecap="round"></path><path d="M26.7 4.5 L30.2 6.3 L30.2 3.9 L26.7 2.1 Z" fill="#c2b199" stroke="#8b8277" stroke-width="0.7" stroke-linejoin="round" stroke-linecap="round"></path><path d="M30.2 6.3 L34.7 3.9 L34.7 1.5 L30.2 3.9 Z" fill="#a89b89" stroke="#837c72" stroke-width="0.7" stroke-linejoin="round" stroke-linecap="round"></path><path d="M18.7 -0.4 L21.1 -0.4 L21.1 -10.4 L18.7 -10.4 Z" fill="#a19689"></path><path d="M17.2 -10.8 L22.5 -8 L22.5 -16 L17.2 -18.8 Z" fill="#e0e0db" stroke="#adaeac" stroke-width="0.7" stroke-linejoin="round" stroke-linecap="round"></path><path d="M17.8 -12.5 L21.4 -10.6 L21.4 -11.5 L17.8 -13.4 Z" fill="#a3a3a1"></path><path d="M17.8 -14.5 L21.4 -12.6 L21.4 -13.5 L17.8 -15.4 Z" fill="#a3a3a1"></path><path d="M17.8 -16.5 L21.4 -14.6 L21.4 -15.5 L17.8 -17.4 Z" fill="#a3a3a1"></path><path d="M28.8 -39 L33 -36.8 L33 -44.2 L28.8 -46.4 Z" fill="#cdd7e3" stroke="#aab2bd" stroke-width="0.6" stroke-linejoin="round" stroke-linecap="round"></path><path d="M50.4 -34.1 L54.5 -36.2 L54.5 -43.6 L50.4 -41.5 Z" fill="#cdd7e3" stroke="#aab2bd" stroke-width="0.6" stroke-linejoin="round" stroke-linecap="round"></path></g></svg>