<svg xmlns="http://www.w3.org/2000/svg" viewBox="0 0 256 256" width="256" height="256"><g transform="translate(22.510126420178633 169.62753507014554) scale(2.762715566969452)"><path d="M77.1 7 L74.2 14.9 L65.7 21.6 L53.1 26.1 L38.2 27.6 L23.3 26.1 L10.6 21.6 L2.2 14.9 L-0.8 7 L2.2 -0.9 L10.6 -7.6 L23.3 -12.1 L38.2 -13.6 L53.1 -12.1 L65.7 -7.6 L74.2 -0.9 Z" fill="rgba(60,50,40,0.10)"></path><path d="M0 0 L38.2 -20.2 L76.4 0 L38.2 20.2 Z" fill="#d0cfcb" stroke="#b6b6b3" stroke-width="0.9" stroke-linejoin="round" stroke-linecap="round"></path><path d="M0 0 L38.2 20.2 L38.2 27.2 L0 7 Z" fill="#bbbab5" stroke="#a3a29f" stroke-width="0.9" stroke-linejoin="round" stroke-linecap="round"></path><path d="M38.2 20.2 L76.4 0 L76.4 7 L38.2 27.2 Z" fill="#afadaa" stroke="#9c9c99" stroke-width="0.9" stroke-linejoin="round" stroke-linecap="round"></path><path d="M5.7 0 L38.2 -17.2 L70.6 0 L38.2 17.2 Z" fill="#8d9d90" stroke="#7c8b80" stroke-width="0.8" stroke-linejoin="round" stroke-linecap="round"></path><path d="M18.9 7 L26.5 11 L61.8 -7.7 L54.2 -11.7 Z" fill="#dbdbd7" stroke="#cbc9c4" stroke-width="0.7" stroke-linejoin="round" stroke-linecap="round"></path><path d="M26 3.2 L33.6 7.3" fill="none" stroke="#cbc9c4" stroke-width="0.6" stroke-linejoin="round" stroke-linecap="round"></path><path d="M33.7 -0.9 L41.4 3.2" fill="none" stroke="#cbc9c4" stroke-width="0.6" stroke-linejoin="round" stroke-linecap="round"></path><path d="M41.5 -5 L49.1 -1" fill="none" stroke="#cbc9c4" stroke-width="0.6" stroke-linejoin="round" stroke-linecap="round"></path><path d="M49.3 -9.1 L56.9 -5.1" fill="none" stroke="#cbc9c4" stroke-width="0.6" stroke-linejoin="round" stroke-linecap="round"></path><path d="M19.1 -6.1 L49.6 10.1 L49.6 -15.9 L19.1 -32.1 Z" fill="#9fb2a2" stroke="#6e7b72" stroke-width="0.9" stroke-linejoin="round" stroke-linecap="round"></path><path d="M49.6 10.1 L70.3 -0.8 L70.3 -26.8 L59.9 -41.3 L49.6 -15.9 Z" fill="#839387" stroke="#69756d" stroke-width="0.9" stroke-linejoin="round" stroke-linecap="round"></path><path d="M19.1 -9.1 L49.6 7.1" fill="none" stroke="#8e9f91" stroke-width="0.5" stroke-linejoin="round" stroke-linecap="round"></path><path d="M49.6 7.1 L70.3 -3.8" fill="none" stroke="#77857b" stroke-width="0.5" stroke-linejoin="round" stroke-linecap="round"></path><path d="M19.1 -12.5 L49.6 3.7" fill="none" stroke="#8e9f91" stroke-width="0.5" stroke-linejoin="round" stroke-linecap="round"></path><path d="M49.6 3.7 L70.3 -7.2" fill="none" stroke="#77857b" stroke-width="0.5" stroke-linejoin="round" stroke-linecap="round"></path><path d="M19.1 -15.9 L49.6 0.3" fill="none" stroke="#8e9f91" stroke-width="0.5" stroke-linejoin="round" stroke-linecap="round"></path><path d="M49.6 0.3 L70.3 -10.6" fill="none" stroke="#77857b" stroke-width="0.5" stroke-linejoin="round" stroke-linecap="round"></path><path d="M19.1 -19.3 L49.6 -3.1" fill="none" stroke="#8e9f91" stroke-width="0.5" stroke-linejoin="round" stroke-linecap="round"></path><path d="M49.6 -3.1 L70.3 -14" fill="none" stroke="#77857b" stroke-width="0.5" stroke-linejoin="round" stroke-linecap="round"></path><path d="M19.1 -22.7 L49.6 -6.5" fill="none" stroke="#8e9f91" stroke-width="0.5" stroke-linejoin="round" stroke-linecap="round"></path><path d="M49.6 -6.5 L70.3 -17.4" fill="none" stroke="#77857b" stroke-width="0.5" stroke-linejoin="round" stroke-linecap="round"></path><path d="M19.1 -26.1 L49.6 -9.9" fill="none" stroke="#8e9f91" stroke-width="0.5" stroke-linejoin="round" stroke-linecap="round"></path><path d="M49.6 -9.9 L70.3 -20.8" fill="none" stroke="#77857b" stroke-width="0.5" stroke-linejoin="round" stroke-linecap="round"></path><path d="M19.1 -29.5 L49.6 -13.3" fill="none" stroke="#8e9f91" stroke-width="0.5" stroke-linejoin="round" stroke-linecap="round"></path><path d="M49.6 -13.3 L70.3 -24.2" fill="none" stroke="#77857b" stroke-width="0.5" stroke-linejoin="round" stroke-linecap="round"></path><path d="M16.9 -31.4 L49.6 -14.1 L61.7 -40.4 L28.9 -57.8 Z" fill="#808999" stroke="#5c626f" stroke-width="0.9" stroke-linejoin="round" stroke-linecap="round"></path><path d="M28.9 -57.8 L61.7 -40.4 L73.7 -26.8 L41 -44.2 Z" fill="#676f7e" stroke="#5c626f" stroke-width="0.9" stroke-linejoin="round" stroke-linecap="round"></path><path d="M16.9 -31.4 L49.6 -14.1 L49.6 -11.5 L16.9 -28.8 Z" fill="#e8eaea" stroke="#b2b4b6" stroke-width="0.7" stroke-linejoin="round" stroke-linecap="round"></path><path d="M49.6 -14.1 L61.7 -40.4 L61.7 -37.8 L49.6 -11.5 Z" fill="#e8eaea" stroke="#b2b4b6" stroke-width="0.7" stroke-linejoin="round" stroke-linecap="round"></path><path d="M61.7 -40.4 L73.7 -26.8 L73.7 -24.2 L61.7 -37.8 Z" fill="#d7d9da" stroke="#a8aaad" stroke-width="0.7" stroke-linejoin="round" stroke-linecap="round"></path><path d="M41 -44.2 L73.7 -26.8 L73.7 -24.2 L41 -41.6 Z" fill="#c6c8ca" stroke="#a5a7a9" stroke-width="0.7" stroke-linejoin="round" stroke-linecap="round"></path><path d="M19.5 -35.9 L51.8 -18.8" fill="none" stroke="#757e8e" stroke-width="0.5" stroke-linejoin="round" stroke-linecap="round"></path><path d="M31.6 -55.1 L63.8 -38" fill="none" stroke="#6b7383" stroke-width="0.5" stroke-linejoin="round" stroke-linecap="round"></path><path d="M21.9 -41.2 L54.2 -24.1" fill="none" stroke="#757e8e" stroke-width="0.5" stroke-linejoin="round" stroke-linecap="round"></path><path d="M34 -52.4 L66.2 -35.3" fill="none" stroke="#6b7383" stroke-width="0.5" stroke-linejoin="round" stroke-linecap="round"></path><path d="M24.3 -46.5 L56.6 -29.4" fill="none" stroke="#757e8e" stroke-width="0.5" stroke-linejoin="round" stroke-linecap="round"></path><path d="M36.4 -49.6 L68.6 -32.5" fill="none" stroke="#6b7383" stroke-width="0.5" stroke-linejoin="round" stroke-linecap="round"></path><path d="M26.8 -51.7 L59 -34.6" fill="none" stroke="#757e8e" stroke-width="0.5" stroke-linejoin="round" stroke-linecap="round"></path><path d="M38.8 -46.9 L71 -29.8" fill="none" stroke="#6b7383" stroke-width="0.5" stroke-linejoin="round" stroke-linecap="round"></path><path d="M29.2 -57 L61.4 -39.9" fill="none" stroke="#757e8e" stroke-width="0.5" stroke-linejoin="round" stroke-linecap="round"></path><path d="M41.2 -44.2 L73.5 -27.1" fill="none" stroke="#6b7383" stroke-width="0.5" stroke-linejoin="round" stroke-linecap="round"></path><path d="M28.9 -57.8 L61.7 -40.4" fill="none" stroke="#8890a0" stroke-width="1.1" stroke-linejoin="round" stroke-linecap="round"></path><path d="M20.9 -14.1 L25.5 -11.7 L25.5 -23.7 L20.9 -26.1 Z" fill="#e8eaea" stroke="#b6b7b9" stroke-width="0.7" stroke-linejoin="round" stroke-linecap="round"></path><path d="M21.7 -15.3 L24.8 -13.6 L24.8 -22.5 L21.7 -24.2 Z" fill="#f6c97c" stroke="#cfa557" stroke-width="0.6" stroke-linejoin="round" stroke-linecap="round"></path><path d="M23.2 -14.4 L23.2 -23.3" fill="none" stroke="#cdb993" stroke-width="0.6" stroke-linejoin="round" stroke-linecap="round"></path><path d="M21.7 -20 L24.8 -18.3" fill="none" stroke="#cdb993" stroke-width="0.6" stroke-linejoin="round" stroke-linecap="round"></path><path d="M43.5 -2.1 L48.1 0.3 L48.1 -11.7 L43.5 -14.1 Z" fill="#e8eaea" stroke="#b6b7b9" stroke-width="0.7" stroke-linejoin="round" stroke-linecap="round"></path><path d="M44.3 -3.3 L47.4 -1.6 L47.4 -10.5 L44.3 -12.2 Z" fill="#f6c97c" stroke="#cfa557" stroke-width="0.6" stroke-linejoin="round" stroke-linecap="round"></path><path d="M45.8 -2.5 L45.8 -11.3" fill="none" stroke="#cdb993" stroke-width="0.6" stroke-linejoin="round" stroke-linecap="round"></path><path d="M44.3 -8 L47.4 -6.3" fill="none" stroke="#cdb993" stroke-width="0.6" stroke-linejoin="round" stroke-linecap="round"></path><path d="M52.9 -0.6 L57.5 -3 L57.5 -15 L52.9 -12.6 Z" fill="#e8eaea" stroke="#b6b7b9" stroke-width="0.7" stroke-linejoin="round" stroke-linecap="round"></path><path d="M53.7 -2.6 L56.7 -4.2 L56.7 -13.1 L53.7 -11.5 Z" fill="#f6c97c" stroke="#cfa557" stroke-width="0.6" stroke-linejoin="round" stroke-linecap="round"></path><path d="M55.2 -3.4 L55.2 -12.3" fill="none" stroke="#cdb993" stroke-width="0.6" stroke-linejoin="round" stroke-linecap="round"></path><path d="M53.7 -7.3 L56.7 -8.9" fill="none" stroke="#cdb993" stroke-width="0.6" stroke-linejoin="round" stroke-linecap="round"></path><path d="M62.4 -5.7 L66.5 -7.8 L66.5 -19.8 L62.4 -17.7 Z" fill="#e8eaea" stroke="#b6b7b9" stroke-width="0.7" stroke-linejoin="round" stroke-linecap="round"></path><path d="M63.1 -7.6 L65.9 -9.1 L65.9 -17.9 L63.1 -16.4 Z" fill="#818e9c" stroke="#747f8b" stroke-width="0.6" stroke-linejoin="round" stroke-linecap="round"></path><path d="M64.5 -8.3 L64.5 -17.2" fill="none" stroke="#778390" stroke-width="0.6" stroke-linejoin="round" stroke-linecap="round"></path><path d="M63.1 -12.2 L65.9 -13.7" fill="none" stroke="#778390" stroke-width="0.6" stroke-linejoin="round" stroke-linecap="round"></path><path d="M33.1 0.4 L36.8 2.3 L36.8 -16.7 L33.1 -18.6 Z" fill="#e8eaea" stroke="#b6b7b9" stroke-width="0.7" stroke-linejoin="round" stroke-linecap="round"></path><path d="M33.7 0.6 L36.3 2 L36.3 -15.8 L33.7 -17.2 Z" fill="#8b786e" stroke="#756863" stroke-width="0.6" stroke-linejoin="round" stroke-linecap="round"></path><path d="M34.8 -7.3 L35.8 -8.3 L36.8 -7.3 L35.8 -6.3 Z" fill="#cfa557"></path><path d="M16.8 0.2 L35.1 9.9 L42.8 5.9 L24.4 -3.8 Z" fill="#c1b19f" stroke="#a39587" stroke-width="0.8" stroke-linejoin="round" stroke-linecap="round"></path><path d="M16.8 0.2 L35.1 9.9 L35.1 12.1 L16.8 2.4 Z" fill="#b3a496" stroke="#9c8e82" stroke-width="0.8" stroke-linejoin="round" stroke-linecap="round"></path><path d="M14.5 -22.2 L35.1 -11.3 L43.9 -18.3 L23.3 -29.2 Z" fill="#757e8e" stroke="#5c626f" stroke-width="0.9" stroke-linejoin="round" stroke-linecap="round"></path><path d="M16.6 0.6 L18.5 0.6 L18.5 -21.8 L16.6 -21.8 Z" fill="#e8eaea" stroke="#b9bbbd" stroke-width="0.6" stroke-linejoin="round" stroke-linecap="round"></path><path d="M25 5.1 L26.9 5.1 L26.9 -17.3 L25 -17.3 Z" fill="#e8eaea" stroke="#b9bbbd" stroke-width="0.6" stroke-linejoin="round" stroke-linecap="round"></path><path d="M33.4 9.5 L35.3 9.5 L35.3 -12.9 L33.4 -12.9 Z" fill="#e8eaea" stroke="#b9bbbd" stroke-width="0.6" stroke-linejoin="round" stroke-linecap="round"></path><path d="M16.8 -8.9 L35.1 0.9" fill="none" stroke="#e8eaea" stroke-width="1.4" stroke-linejoin="round" stroke-linecap="round"></path><path d="M17.9 0.6 L17.9 -8.3" fill="none" stroke="#e8eaea" stroke-width="0.6" stroke-linejoin="round" stroke-linecap="round"></path><path d="M19.5 1.5 L19.5 -7.4" fill="none" stroke="#e8eaea" stroke-width="0.6" stroke-linejoin="round" stroke-linecap="round"></path><path d="M21.2 2.3 L21.2 -6.5" fill="none" stroke="#e8eaea" stroke-width="0.6" stroke-linejoin="round" stroke-linecap="round"></path><path d="M22.8 3.2 L22.8 -5.6" fill="none" stroke="#e8eaea" stroke-width="0.6" stroke-linejoin="round" stroke-linecap="round"></path><path d="M24.5 4.1 L24.5 -4.8" fill="none" stroke="#e8eaea" stroke-width="0.6" stroke-linejoin="round" stroke-linecap="round"></path><path d="M26.1 5 L26.1 -3.9" fill="none" stroke="#e8eaea" stroke-width="0.6" stroke-linejoin="round" stroke-linecap="round"></path><path d="M27.8 5.8 L27.8 -3" fill="none" stroke="#e8eaea" stroke-width="0.6" stroke-linejoin="round" stroke-linecap="round"></path><path d="M29.4 6.7 L29.4 -2.1" fill="none" stroke="#e8eaea" stroke-width="0.6" stroke-linejoin="round" stroke-linecap="round"></path><path d="M31.1 7.6 L31.1 -1.3" fill="none" stroke="#e8eaea" stroke-width="0.6" stroke-linejoin="round" stroke-linecap="round"></path><path d="M32.7 8.5 L32.7 -0.4" fill="none" stroke="#e8eaea" stroke-width="0.6" stroke-linejoin="round" stroke-linecap="round"></path><path d="M34.4 9.3 L34.4 0.5" fill="none" stroke="#e8eaea" stroke-width="0.6" stroke-linejoin="round" stroke-linecap="round"></path><path d="M31.2 -48.3 L33.6 -49.6 L36 -48.3 L33.6 -47 Z" fill="#af9590" stroke="#856f6c" stroke-width="0.8" stroke-linejoin="round" stroke-linecap="round"></path><path d="M31.2 -37.3 L33.6 -36 L33.6 -47 L31.2 -48.3 Z" fill="#a5857e" stroke="#806c69" stroke-width="0.8" stroke-linejoin="round" stroke-linecap="round"></path><path d="M33.6 -36 L36 -37.3 L36 -48.3 L33.6 -47 Z" fill="#917772" stroke="#7c6966" stroke-width="0.8" stroke-linejoin="round" stroke-linecap="round"></path><path d="M8.3 0.2 L12.3 0.2 L11.9 -14.8 L8.7 -14.8 Z" fill="#8b7e77" stroke="#756c69" stroke-width="0.7" stroke-linejoin="round" stroke-linecap="round"></path><path d="M20.3 -20.3 L18.4 -15.4 L11.9 -13.9 L4.7 -13.3 L2 -18.1 L0 -23 L5.6 -26.2 L12.1 -27.4 L18.3 -25.1 Z" fill="#99ab9c" stroke="#7b8a7f" stroke-width="0.7" stroke-linejoin="round" stroke-linecap="round"></path><path d="M15.2 -24.6 L13.9 -21.3 L9.5 -20.2 L4.6 -19.9 L2.8 -23.1 L1.4 -26.4 L5.2 -28.6 L9.6 -29.4 L13.8 -27.9 Z" fill="#a0b2a2" stroke="#808f84" stroke-width="0.7" stroke-linejoin="round" stroke-linecap="round"></path><path d="M40.3 5.1 L38.6 9.5 L32.7 10.9 L26.3 11.4 L23.8 7.1 L22 2.7 L27.1 -0.2 L32.9 -1.3 L38.5 0.8 Z" fill="#7d8c81" stroke="#67736c" stroke-width="0.7" stroke-linejoin="round" stroke-linecap="round"></path><path d="M45.2 8.1 L43.8 11.5 L39.3 12.6 L34.3 13 L32.4 9.7 L31 6.3 L34.9 4 L39.4 3.2 L43.8 4.8 Z" fill="#6a776e" stroke="#59645e" stroke-width="0.7" stroke-linejoin="round" stroke-linecap="round"></path><path d="M68.3 1.9 L66.8 5.8 L61.6 7 L55.9 7.5 L53.7 3.6 L52.1 -0.3 L56.6 -2.8 L61.7 -3.8 L66.7 -2 Z" fill="#88978b" stroke="#6e7b73" stroke-width="0.7" stroke-linejoin="round" stroke-linecap="round"></path><path d="M36.5 9.2 L37.8 7.9 L39.1 9.2 L37.8 10.5 Z" fill="#d6b5cc"></path><path d="M37.4 13.7 L38.7 12.4 L40 13.7 L38.7 15 Z" fill="#ddcf9d"></path><path d="M35.5 11.2 L36.8 9.9 L38.1 11.2 L36.8 12.5 Z" fill="#b7cdb9"></path><path d="M40.6 10.7 L41.9 9.4 L43.2 10.7 L41.9 12 Z" fill="#c2a9ca"></path><path d="M37.9 11.4 L39.2 10.1 L40.5 11.4 L39.2 12.7 Z" fill="#d6b5cc"></path><path d="M37.3 12.1 L38.6 10.8 L39.9 12.1 L38.6 13.4 Z" fill="#ddcf9d"></path><path d="M40.3 10.5 L41.6 9.2 L42.9 10.5 L41.6 11.8 Z" fill="#b7cdb9"></path><path d="M63 5.8 L64.3 4.5 L65.6 5.8 L64.3 7.1 Z" fill="#d6b5cc"></path><path d="M62.8 3.3 L64.1 2 L65.4 3.3 L64.1 4.6 Z" fill="#ddcf9d"></path><path d="M58.6 4.6 L59.9 3.3 L61.2 4.6 L59.9 5.9 Z" fill="#b7cdb9"></path><path d="M62.3 6.2 L63.6 4.9 L64.9 6.2 L63.6 7.5 Z" fill="#c2a9ca"></path><path d="M55.5 4.7 L56.8 3.4 L58.1 4.7 L56.8 6 Z" fill="#d6b5cc"></path><path d="M60.9 2.6 L62.2 1.3 L63.5 2.6 L62.2 3.9 Z" fill="#ddcf9d"></path></g></svg>