<svg xmlns="http://www.w3.org/2000/svg" viewBox="0 0 256 256" width="256" height="256"><g transform="translate(34.7159917501689 179.59460132813805) scale(2.4021645603564936)"><path d="M77.1 7 L74.2 14.9 L65.7 21.6 L53.1 26.1 L38.2 27.6 L23.3 26.1 L10.6 21.6 L2.2 14.9 L-0.8 7 L2.2 -0.9 L10.6 -7.6 L23.3 -12.1 L38.2 -13.6 L53.1 -12.1 L65.7 -7.6 L74.2 -0.9 Z" fill="rgba(60,50,40,0.10)"></path><path d="M0 0 L38.2 -20.2 L76.4 0 L38.2 20.2 Z" fill="#d0cfcb" stroke="#b6b6b3" stroke-width="0.9" stroke-linejoin="round" stroke-linecap="round"></path><path d="M0 0 L38.2 20.2 L38.2 27.2 L0 7 Z" fill="#bbbab5" stroke="#a3a29f" stroke-width="0.9" stroke-linejoin="round" stroke-linecap="round"></path><path d="M38.2 20.2 L76.4 0 L76.4 7 L38.2 27.2 Z" fill="#afadaa" stroke="#9c9c99" stroke-width="0.9" stroke-linejoin="round" stroke-linecap="round"></path><path d="M5.7 0 L38.2 -17.2 L70.6 0 L38.2 17.2 Z" fill="#8d9d90" stroke="#7c8b80" stroke-width="0.8" stroke-linejoin="round" stroke-linecap="round"></path><path d="M22.7 9 L30.4 13.1 L65.6 -5.6 L58 -9.7 Z" fill="#dbdbd7" stroke="#cbc9c4" stroke-width="0.7" stroke-linejoin="round" stroke-linecap="round"></path><path d="M29.8 5.3 L37.4 9.3" fill="none" stroke="#cbc9c4" stroke-width="0.6" stroke-linejoin="round" stroke-linecap="round"></path><path d="M37.6 1.1 L45.2 5.2" fill="none" stroke="#cbc9c4" stroke-width="0.6" stroke-linejoin="round" stroke-linecap="round"></path><path d="M45.3 -3 L53 1.1" fill="none" stroke="#cbc9c4" stroke-width="0.6" stroke-linejoin="round" stroke-linecap="round"></path><path d="M53.1 -7.1 L60.7 -3" fill="none" stroke="#cbc9c4" stroke-width="0.6" stroke-linejoin="round" stroke-linecap="round"></path><path d="M21.4 -8.9 L55 8.9 L55 -33.1 L21.4 -50.9 Z" fill="#d4d3cd" stroke="#979795" stroke-width="0.9" stroke-linejoin="round" stroke-linecap="round"></path><path d="M55 8.9 L71.8 0 L71.8 -42 L63.4 -52.5 L55 -33.1 Z" fill="#b4b3af" stroke="#90908f" stroke-width="0.9" stroke-linejoin="round" stroke-linecap="round"></path><path d="M21.4 -11.9 L55 5.9" fill="none" stroke="#c2c1bc" stroke-width="0.5" stroke-linejoin="round" stroke-linecap="round"></path><path d="M55 5.9 L71.8 -3" fill="none" stroke="#a3a29f" stroke-width="0.5" stroke-linejoin="round" stroke-linecap="round"></path><path d="M21.4 -15.3 L55 2.5" fill="none" stroke="#c2c1bc" stroke-width="0.5" stroke-linejoin="round" stroke-linecap="round"></path><path d="M55 2.5 L71.8 -6.4" fill="none" stroke="#a3a29f" stroke-width="0.5" stroke-linejoin="round" stroke-linecap="round"></path><path d="M21.4 -18.7 L55 -0.9" fill="none" stroke="#c2c1bc" stroke-width="0.5" stroke-linejoin="round" stroke-linecap="round"></path><path d="M55 -0.9 L71.8 -9.8" fill="none" stroke="#a3a29f" stroke-width="0.5" stroke-linejoin="round" stroke-linecap="round"></path><path d="M21.4 -22.1 L55 -4.3" fill="none" stroke="#c2c1bc" stroke-width="0.5" stroke-linejoin="round" stroke-linecap="round"></path><path d="M55 -4.3 L71.8 -13.2" fill="none" stroke="#a3a29f" stroke-width="0.5" stroke-linejoin="round" stroke-linecap="round"></path><path d="M21.4 -25.5 L55 -7.7" fill="none" stroke="#c2c1bc" stroke-width="0.5" stroke-linejoin="round" stroke-linecap="round"></path><path d="M55 -7.7 L71.8 -16.6" fill="none" stroke="#a3a29f" stroke-width="0.5" stroke-linejoin="round" stroke-linecap="round"></path><path d="M21.4 -28.9 L55 -11.1" fill="none" stroke="#c2c1bc" stroke-width="0.5" stroke-linejoin="round" stroke-linecap="round"></path><path d="M55 -11.1 L71.8 -20" fill="none" stroke="#a3a29f" stroke-width="0.5" stroke-linejoin="round" stroke-linecap="round"></path><path d="M21.4 -32.3 L55 -14.5" fill="none" stroke="#c2c1bc" stroke-width="0.5" stroke-linejoin="round" stroke-linecap="round"></path><path d="M55 -14.5 L71.8 -23.4" fill="none" stroke="#a3a29f" stroke-width="0.5" stroke-linejoin="round" stroke-linecap="round"></path><path d="M21.4 -35.7 L55 -17.9" fill="none" stroke="#c2c1bc" stroke-width="0.5" stroke-linejoin="round" stroke-linecap="round"></path><path d="M55 -17.9 L71.8 -26.8" fill="none" stroke="#a3a29f" stroke-width="0.5" stroke-linejoin="round" stroke-linecap="round"></path><path d="M21.4 -39.1 L55 -21.3" fill="none" stroke="#c2c1bc" stroke-width="0.5" stroke-linejoin="round" stroke-linecap="round"></path><path d="M55 -21.3 L71.8 -30.2" fill="none" stroke="#a3a29f" stroke-width="0.5" stroke-linejoin="round" stroke-linecap="round"></path><path d="M21.4 -42.5 L55 -24.7" fill="none" stroke="#c2c1bc" stroke-width="0.5" stroke-linejoin="round" stroke-linecap="round"></path><path d="M55 -24.7 L71.8 -33.6" fill="none" stroke="#a3a29f" stroke-width="0.5" stroke-linejoin="round" stroke-linecap="round"></path><path d="M21.4 -45.9 L55 -28.1" fill="none" stroke="#c2c1bc" stroke-width="0.5" stroke-linejoin="round" stroke-linecap="round"></path><path d="M55 -28.1 L71.8 -37" fill="none" stroke="#a3a29f" stroke-width="0.5" stroke-linejoin="round" stroke-linecap="round"></path><path d="M21.4 -49.3 L55 -31.5" fill="none" stroke="#c2c1bc" stroke-width="0.5" stroke-linejoin="round" stroke-linecap="round"></path><path d="M55 -31.5 L71.8 -40.4" fill="none" stroke="#a3a29f" stroke-width="0.5" stroke-linejoin="round" stroke-linecap="round"></path><path d="M19.4 -50.3 L55 -31.5 L64.9 -51.7 L29.3 -70.6 Z" fill="#908988" stroke="#676363" stroke-width="0.9" stroke-linejoin="round" stroke-linecap="round"></path><path d="M29.3 -70.6 L64.9 -51.7 L74.8 -42 L39.3 -60.9 Z" fill="#77706e" stroke="#676363" stroke-width="0.9" stroke-linejoin="round" stroke-linecap="round"></path><path d="M19.4 -50.3 L55 -31.5 L55 -28.9 L19.4 -47.7 Z" fill="#e8eaea" stroke="#b2b4b6" stroke-width="0.7" stroke-linejoin="round" stroke-linecap="round"></path><path d="M55 -31.5 L64.9 -51.7 L64.9 -49.1 L55 -28.9 Z" fill="#e8eaea" stroke="#b2b4b6" stroke-width="0.7" stroke-linejoin="round" stroke-linecap="round"></path><path d="M64.9 -51.7 L74.8 -42 L74.8 -39.4 L64.9 -49.1 Z" fill="#d7d9da" stroke="#a8aaad" stroke-width="0.7" stroke-linejoin="round" stroke-linecap="round"></path><path d="M39.3 -60.9 L74.8 -42 L74.8 -39.4 L39.3 -58.3 Z" fill="#c6c8ca" stroke="#a5a7a9" stroke-width="0.7" stroke-linejoin="round" stroke-linecap="round"></path><path d="M21.6 -53.7 L56.8 -35.1" fill="none" stroke="#877f7d" stroke-width="0.5" stroke-linejoin="round" stroke-linecap="round"></path><path d="M31.6 -68.6 L66.7 -50" fill="none" stroke="#7c7471" stroke-width="0.5" stroke-linejoin="round" stroke-linecap="round"></path><path d="M23.6 -57.8 L58.8 -39.2" fill="none" stroke="#877f7d" stroke-width="0.5" stroke-linejoin="round" stroke-linecap="round"></path><path d="M33.6 -66.7 L68.7 -48" fill="none" stroke="#7c7471" stroke-width="0.5" stroke-linejoin="round" stroke-linecap="round"></path><path d="M25.6 -61.8 L60.7 -43.2" fill="none" stroke="#877f7d" stroke-width="0.5" stroke-linejoin="round" stroke-linecap="round"></path><path d="M35.5 -64.7 L70.7 -46.1" fill="none" stroke="#7c7471" stroke-width="0.5" stroke-linejoin="round" stroke-linecap="round"></path><path d="M27.6 -65.9 L62.7 -47.3" fill="none" stroke="#877f7d" stroke-width="0.5" stroke-linejoin="round" stroke-linecap="round"></path><path d="M37.5 -62.8 L72.7 -44.1" fill="none" stroke="#7c7471" stroke-width="0.5" stroke-linejoin="round" stroke-linecap="round"></path><path d="M29.6 -70 L64.7 -51.3" fill="none" stroke="#877f7d" stroke-width="0.5" stroke-linejoin="round" stroke-linecap="round"></path><path d="M39.5 -60.8 L74.6 -42.2" fill="none" stroke="#7c7471" stroke-width="0.5" stroke-linejoin="round" stroke-linecap="round"></path><path d="M29.3 -70.6 L64.9 -51.7" fill="none" stroke="#979191" stroke-width="1.1" stroke-linejoin="round" stroke-linecap="round"></path><path d="M24.1 -33.5 L28.4 -31.2 L28.4 -42.2 L24.1 -44.5 Z" fill="#e8eaea" stroke="#b6b7b9" stroke-width="0.7" stroke-linejoin="round" stroke-linecap="round"></path><path d="M24.8 -34.5 L27.7 -33 L27.7 -41.1 L24.8 -42.7 Z" fill="#f6c97c" stroke="#cfa557" stroke-width="0.6" stroke-linejoin="round" stroke-linecap="round"></path><path d="M26.3 -33.8 L26.3 -41.9" fill="none" stroke="#cdb993" stroke-width="0.6" stroke-linejoin="round" stroke-linecap="round"></path><path d="M24.8 -38.8 L27.7 -37.3" fill="none" stroke="#cdb993" stroke-width="0.6" stroke-linejoin="round" stroke-linecap="round"></path><path d="M31.5 -29.6 L35.8 -27.2 L35.8 -38.2 L31.5 -40.6 Z" fill="#e8eaea" stroke="#b6b7b9" stroke-width="0.7" stroke-linejoin="round" stroke-linecap="round"></path><path d="M32.2 -30.6 L35.1 -29 L35.1 -37.2 L32.2 -38.8 Z" fill="#818e9c" stroke="#747f8b" stroke-width="0.6" stroke-linejoin="round" stroke-linecap="round"></path><path d="M33.6 -29.8 L33.6 -38" fill="none" stroke="#778390" stroke-width="0.6" stroke-linejoin="round" stroke-linecap="round"></path><path d="M32.2 -34.9 L35.1 -33.3" fill="none" stroke="#778390" stroke-width="0.6" stroke-linejoin="round" stroke-linecap="round"></path><path d="M48.3 -20.7 L52.6 -18.3 L52.6 -29.3 L48.3 -31.7 Z" fill="#e8eaea" stroke="#b6b7b9" stroke-width="0.7" stroke-linejoin="round" stroke-linecap="round"></path><path d="M49 -21.7 L51.9 -20.1 L51.9 -28.3 L49 -29.9 Z" fill="#f6c97c" stroke="#cfa557" stroke-width="0.6" stroke-linejoin="round" stroke-linecap="round"></path><path d="M50.4 -20.9 L50.4 -29.1" fill="none" stroke="#cdb993" stroke-width="0.6" stroke-linejoin="round" stroke-linecap="round"></path><path d="M49 -26 L51.9 -24.4" fill="none" stroke="#cdb993" stroke-width="0.6" stroke-linejoin="round" stroke-linecap="round"></path><path d="M58.7 -19.1 L63 -21.4 L63 -32.4 L58.7 -30.1 Z" fill="#e8eaea" stroke="#b6b7b9" stroke-width="0.7" stroke-linejoin="round" stroke-linecap="round"></path><path d="M59.4 -20.9 L62.3 -22.4 L62.3 -30.6 L59.4 -29 Z" fill="#f6c97c" stroke="#cfa557" stroke-width="0.6" stroke-linejoin="round" stroke-linecap="round"></path><path d="M60.9 -21.6 L60.9 -29.8" fill="none" stroke="#cdb993" stroke-width="0.6" stroke-linejoin="round" stroke-linecap="round"></path><path d="M59.4 -25.1 L62.3 -26.7" fill="none" stroke="#cdb993" stroke-width="0.6" stroke-linejoin="round" stroke-linecap="round"></path><path d="M58.7 0.9 L63 -1.4 L63 -12.4 L58.7 -10.1 Z" fill="#e8eaea" stroke="#b6b7b9" stroke-width="0.7" stroke-linejoin="round" stroke-linecap="round"></path><path d="M59.4 -0.9 L62.3 -2.4 L62.3 -10.6 L59.4 -9 Z" fill="#818e9c" stroke="#747f8b" stroke-width="0.6" stroke-linejoin="round" stroke-linecap="round"></path><path d="M60.9 -1.6 L60.9 -9.8" fill="none" stroke="#778390" stroke-width="0.6" stroke-linejoin="round" stroke-linecap="round"></path><path d="M59.4 -5.1 L62.3 -6.7" fill="none" stroke="#778390" stroke-width="0.6" stroke-linejoin="round" stroke-linecap="round"></path><path d="M21.4 -8.9 L30.5 -4 L30.5 -34 L55 -21.1 L55 8.9 Z" fill="none"></path><path d="M17.6 2.8 L42 15.8 L42 -6.2 L17.6 -19.2 Z" fill="#d4d3cd" stroke="#979795" stroke-width="0.9" stroke-linejoin="round" stroke-linecap="round"></path><path d="M42 15.8 L55 8.9 L55 -21.1 L42 -6.2 Z" fill="#b4b3af" stroke="#90908f" stroke-width="0.9" stroke-linejoin="round" stroke-linecap="round"></path><path d="M14.1 -19 L42 -4.2 L56.9 -20.1 L29 -34.9 Z" fill="#8b8483" stroke="#676363" stroke-width="0.9" stroke-linejoin="round" stroke-linecap="round"></path><path d="M17.6 -0.2 L42 12.8" fill="none" stroke="#c2c1bc" stroke-width="0.5" stroke-linejoin="round" stroke-linecap="round"></path><path d="M17.6 -3.6 L42 9.4" fill="none" stroke="#c2c1bc" stroke-width="0.5" stroke-linejoin="round" stroke-linecap="round"></path><path d="M17.6 -7 L42 6" fill="none" stroke="#c2c1bc" stroke-width="0.5" stroke-linejoin="round" stroke-linecap="round"></path><path d="M17.6 -10.4 L42 2.6" fill="none" stroke="#c2c1bc" stroke-width="0.5" stroke-linejoin="round" stroke-linecap="round"></path><path d="M17.6 -13.8 L42 -0.8" fill="none" stroke="#c2c1bc" stroke-width="0.5" stroke-linejoin="round" stroke-linecap="round"></path><path d="M17.6 -17.2 L42 -4.2" fill="none" stroke="#c2c1bc" stroke-width="0.5" stroke-linejoin="round" stroke-linecap="round"></path><path d="M29.8 8.3 L38.9 13.2 L38.9 -0.8 L29.8 -5.7 Z" fill="#6c7480" stroke="#5e6570" stroke-width="0.8" stroke-linejoin="round" stroke-linecap="round"></path><path d="M31.6 8.3 L31.6 -3.7" fill="none" stroke="#959da7" stroke-width="0.6" stroke-linejoin="round" stroke-linecap="round"></path><path d="M33.9 9.5 L33.9 -2.5" fill="none" stroke="#959da7" stroke-width="0.6" stroke-linejoin="round" stroke-linecap="round"></path><path d="M36.2 10.7 L36.2 -1.3" fill="none" stroke="#959da7" stroke-width="0.6" stroke-linejoin="round" stroke-linecap="round"></path><path d="M38.5 11.9 L38.5 -0.1" fill="none" stroke="#959da7" stroke-width="0.6" stroke-linejoin="round" stroke-linecap="round"></path><path d="M19.9 0 L26.7 3.7 L26.7 -6.3 L19.9 -10 Z" fill="#e8eaea" stroke="#b6b7b9" stroke-width="0.7" stroke-linejoin="round" stroke-linecap="round"></path><path d="M20.6 -1 L26 1.8 L26 -5.2 L20.6 -8 Z" fill="#f6c97c" stroke="#cfa557" stroke-width="0.6" stroke-linejoin="round" stroke-linecap="round"></path><path d="M4.6 0 L12.2 4 L21.4 -0.8 L13.7 -4.9 Z" fill="#b3b0ae" stroke="#969595" stroke-width="0.7" stroke-linejoin="round" stroke-linecap="round"></path><path d="M5.7 -4.6 L13.4 -0.6 L21.4 -4.8 L13.7 -8.9 Z" fill="#b6b3b2" stroke="#969595" stroke-width="0.7" stroke-linejoin="round" stroke-linecap="round"></path><path d="M6.9 -9.2 L14.5 -5.2 L21.4 -8.8 L13.7 -12.9 Z" fill="#b3b0ae" stroke="#969595" stroke-width="0.7" stroke-linejoin="round" stroke-linecap="round"></path><path d="M8 -13.8 L15.7 -9.8 L21.4 -12.8 L13.7 -16.9 Z" fill="#b6b3b2" stroke="#969595" stroke-width="0.7" stroke-linejoin="round" stroke-linecap="round"></path><path d="M26.7 -6.1 L30.5 -4 L30.5 -30 L26.7 -32.1 Z" fill="#adaaa9" stroke="#918f90" stroke-width="0.8" stroke-linejoin="round" stroke-linecap="round"></path><path d="M38.2 -64.5 L40.5 -65.7 L42.8 -64.5 L40.5 -63.3 Z" fill="#af9590" stroke="#856f6c" stroke-width="0.8" stroke-linejoin="round" stroke-linecap="round"></path><path d="M38.2 -54.5 L40.5 -53.3 L40.5 -63.3 L38.2 -64.5 Z" fill="#a5857e" stroke="#806c69" stroke-width="0.8" stroke-linejoin="round" stroke-linecap="round"></path><path d="M40.5 -53.3 L42.8 -54.5 L42.8 -64.5 L40.5 -63.3 Z" fill="#917772" stroke="#7c6966" stroke-width="0.8" stroke-linejoin="round" stroke-linecap="round"></path><path d="M7.2 0.8 L11.2 0.8 L10.8 -12.2 L7.6 -12.2 Z" fill="#8b7e77" stroke="#756c69" stroke-width="0.7" stroke-linejoin="round" stroke-linecap="round"></path><path d="M18.2 -17.1 L16.4 -12.8 L10.6 -11.4 L4.1 -10.9 L1.7 -15.2 L-0.1 -19.6 L4.9 -22.4 L10.7 -23.6 L16.4 -21.5 Z" fill="#6a776e" stroke="#59645e" stroke-width="0.7" stroke-linejoin="round" stroke-linecap="round"></path><path d="M13.4 -21 L12.2 -18 L8.2 -17.1 L3.8 -16.7 L2.2 -19.7 L0.9 -22.6 L4.4 -24.6 L8.3 -25.4 L12.2 -24 Z" fill="#748278" stroke="#606c65" stroke-width="0.7" stroke-linejoin="round" stroke-linecap="round"></path><path d="M27.1 -8.6 L25.5 -4.8 L20.4 -3.5 L14.6 -3.1 L12.5 -6.9 L10.8 -10.8 L15.3 -13.3 L20.5 -14.3 L25.5 -12.5 Z" fill="#88978b" stroke="#6e7b73" stroke-width="0.7" stroke-linejoin="round" stroke-linecap="round"></path><path d="M46.4 10 L44.7 14.4 L38.8 15.8 L32.4 16.2 L30 11.9 L28.1 7.5 L33.2 4.7 L39 3.6 L44.6 5.6 Z" fill="#7d8c81" stroke="#67736c" stroke-width="0.7" stroke-linejoin="round" stroke-linecap="round"></path><path d="M25.8 -1 L27.1 -2.3 L28.4 -1 L27.1 0.3 Z" fill="#d6b5cc"></path><path d="M26.9 -0.9 L28.2 -2.2 L29.5 -0.9 L28.2 0.4 Z" fill="#ddcf9d"></path><path d="M24.8 -5.8 L26.1 -7.1 L27.4 -5.8 L26.1 -4.5 Z" fill="#b7cdb9"></path><path d="M23 -1.2 L24.3 -2.5 L25.6 -1.2 L24.3 0.1 Z" fill="#c2a9ca"></path><path d="M25.4 -0.9 L26.7 -2.2 L28 -0.9 L26.7 0.4 Z" fill="#d6b5cc"></path><path d="M24.7 -1.4 L26 -2.7 L27.3 -1.4 L26 -0.1 Z" fill="#ddcf9d"></path><path d="M26.9 -4.3 L28.2 -5.6 L29.5 -4.3 L28.2 -3 Z" fill="#b7cdb9"></path><path d="M26.7 -1.6 L28 -2.9 L29.3 -1.6 L28 -0.3 Z" fill="#c2a9ca"></path></g></svg>