<svg xmlns="http://www.w3.org/2000/svg" viewBox="0 0 256 256" width="256" height="256"><g transform="translate(39.504851735135645 181.9313612011623) scale(2.3176340573355008)"><path d="M77.1 7 L74.2 14.9 L65.7 21.6 L53.1 26.1 L38.2 27.6 L23.3 26.1 L10.6 21.6 L2.2 14.9 L-0.8 7 L2.2 -0.9 L10.6 -7.6 L23.3 -12.1 L38.2 -13.6 L53.1 -12.1 L65.7 -7.6 L74.2 -0.9 Z" fill="rgba(60,50,40,0.10)"></path><path d="M0 0 L38.2 -20.2 L76.4 0 L38.2 20.2 Z" fill="#79767e" stroke="#65646d" stroke-width="0.9" stroke-linejoin="round" stroke-linecap="round"></path><path d="M0 0 L38.2 20.2 L38.2 27.2 L0 7 Z" fill="#6a666e" stroke="#57555f" stroke-width="0.9" stroke-linejoin="round" stroke-linecap="round"></path><path d="M38.2 20.2 L76.4 0 L76.4 7 L38.2 27.2 Z" fill="#605d67" stroke="#53515b" stroke-width="0.9" stroke-linejoin="round" stroke-linecap="round"></path><path d="M5.7 0 L38.2 -17.2 L70.6 0 L38.2 17.2 Z" fill="#566255" stroke="#49554b" stroke-width="0.8" stroke-linejoin="round" stroke-linecap="round"></path><path d="M18.1 6.6 L25.8 10.6 L61.1 -8.1 L53.4 -12.1 Z" fill="#817e86" stroke="#757279" stroke-width="0.7" stroke-linejoin="round" stroke-linecap="round"></path><path d="M25.2 2.8 L32.8 6.9" fill="none" stroke="#757279" stroke-width="0.6" stroke-linejoin="round" stroke-linecap="round"></path><path d="M33 -1.3 L40.6 2.8" fill="none" stroke="#757279" stroke-width="0.6" stroke-linejoin="round" stroke-linecap="round"></path><path d="M40.7 -5.4 L48.4 -1.4" fill="none" stroke="#757279" stroke-width="0.6" stroke-linejoin="round" stroke-linecap="round"></path><path d="M48.5 -9.5 L56.1 -5.5" fill="none" stroke="#757279" stroke-width="0.6" stroke-linejoin="round" stroke-linecap="round"></path><path d="M20.6 -6.9 L51.2 9.3 L51.2 -36.7 L20.6 -52.9 Z" fill="#555d76" stroke="#363b52" stroke-width="0.9" stroke-linejoin="round" stroke-linecap="round"></path><path d="M51.2 9.3 L70.3 -0.8 L70.3 -46.8 L60.7 -57.7 L51.2 -36.7 Z" fill="#434a62" stroke="#32384e" stroke-width="0.9" stroke-linejoin="round" stroke-linecap="round"></path><path d="M20.6 -9.9 L51.2 6.3" fill="none" stroke="#49516a" stroke-width="0.5" stroke-linejoin="round" stroke-linecap="round"></path><path d="M51.2 6.3 L70.3 -3.8" fill="none" stroke="#3b4159" stroke-width="0.5" stroke-linejoin="round" stroke-linecap="round"></path><path d="M20.6 -13.3 L51.2 2.9" fill="none" stroke="#49516a" stroke-width="0.5" stroke-linejoin="round" stroke-linecap="round"></path><path d="M51.2 2.9 L70.3 -7.2" fill="none" stroke="#3b4159" stroke-width="0.5" stroke-linejoin="round" stroke-linecap="round"></path><path d="M20.6 -16.7 L51.2 -0.5" fill="none" stroke="#49516a" stroke-width="0.5" stroke-linejoin="round" stroke-linecap="round"></path><path d="M51.2 -0.5 L70.3 -10.6" fill="none" stroke="#3b4159" stroke-width="0.5" stroke-linejoin="round" stroke-linecap="round"></path><path d="M20.6 -20.1 L51.2 -3.9" fill="none" stroke="#49516a" stroke-width="0.5" stroke-linejoin="round" stroke-linecap="round"></path><path d="M51.2 -3.9 L70.3 -14" fill="none" stroke="#3b4159" stroke-width="0.5" stroke-linejoin="round" stroke-linecap="round"></path><path d="M20.6 -23.5 L51.2 -7.3" fill="none" stroke="#49516a" stroke-width="0.5" stroke-linejoin="round" stroke-linecap="round"></path><path d="M51.2 -7.3 L70.3 -17.4" fill="none" stroke="#3b4159" stroke-width="0.5" stroke-linejoin="round" stroke-linecap="round"></path><path d="M20.6 -26.9 L51.2 -10.7" fill="none" stroke="#49516a" stroke-width="0.5" stroke-linejoin="round" stroke-linecap="round"></path><path d="M51.2 -10.7 L70.3 -20.8" fill="none" stroke="#3b4159" stroke-width="0.5" stroke-linejoin="round" stroke-linecap="round"></path><path d="M20.6 -30.3 L51.2 -14.1" fill="none" stroke="#49516a" stroke-width="0.5" stroke-linejoin="round" stroke-linecap="round"></path><path d="M51.2 -14.1 L70.3 -24.2" fill="none" stroke="#3b4159" stroke-width="0.5" stroke-linejoin="round" stroke-linecap="round"></path><path d="M20.6 -33.7 L51.2 -17.5" fill="none" stroke="#49516a" stroke-width="0.5" stroke-linejoin="round" stroke-linecap="round"></path><path d="M51.2 -17.5 L70.3 -27.6" fill="none" stroke="#3b4159" stroke-width="0.5" stroke-linejoin="round" stroke-linecap="round"></path><path d="M20.6 -37.1 L51.2 -20.9" fill="none" stroke="#49516a" stroke-width="0.5" stroke-linejoin="round" stroke-linecap="round"></path><path d="M51.2 -20.9 L70.3 -31" fill="none" stroke="#3b4159" stroke-width="0.5" stroke-linejoin="round" stroke-linecap="round"></path><path d="M20.6 -40.5 L51.2 -24.3" fill="none" stroke="#49516a" stroke-width="0.5" stroke-linejoin="round" stroke-linecap="round"></path><path d="M51.2 -24.3 L70.3 -34.4" fill="none" stroke="#3b4159" stroke-width="0.5" stroke-linejoin="round" stroke-linecap="round"></path><path d="M20.6 -43.9 L51.2 -27.7" fill="none" stroke="#49516a" stroke-width="0.5" stroke-linejoin="round" stroke-linecap="round"></path><path d="M51.2 -27.7 L70.3 -37.8" fill="none" stroke="#3b4159" stroke-width="0.5" stroke-linejoin="round" stroke-linecap="round"></path><path d="M20.6 -47.3 L51.2 -31.1" fill="none" stroke="#49516a" stroke-width="0.5" stroke-linejoin="round" stroke-linecap="round"></path><path d="M51.2 -31.1 L70.3 -41.2" fill="none" stroke="#3b4159" stroke-width="0.5" stroke-linejoin="round" stroke-linecap="round"></path><path d="M20.6 -50.7 L51.2 -34.5" fill="none" stroke="#49516a" stroke-width="0.5" stroke-linejoin="round" stroke-linecap="round"></path><path d="M51.2 -34.5 L70.3 -44.6" fill="none" stroke="#3b4159" stroke-width="0.5" stroke-linejoin="round" stroke-linecap="round"></path><path d="M18.6 -52.3 L51.2 -35.1 L62.2 -56.9 L29.7 -74.2 Z" fill="#3b4057" stroke="#21253b" stroke-width="0.9" stroke-linejoin="round" stroke-linecap="round"></path><path d="M29.7 -74.2 L62.2 -56.9 L73.3 -46.8 L40.8 -64.1 Z" fill="#292e44" stroke="#21253b" stroke-width="0.9" stroke-linejoin="round" stroke-linecap="round"></path><path d="M18.6 -52.3 L51.2 -35.1 L51.2 -32.5 L18.6 -49.7 Z" fill="#8b8994" stroke="#63626f" stroke-width="0.7" stroke-linejoin="round" stroke-linecap="round"></path><path d="M51.2 -35.1 L62.2 -56.9 L62.2 -54.3 L51.2 -32.5 Z" fill="#8b8994" stroke="#63626f" stroke-width="0.7" stroke-linejoin="round" stroke-linecap="round"></path><path d="M62.2 -56.9 L73.3 -46.8 L73.3 -44.2 L62.2 -54.3 Z" fill="#7e7d88" stroke="#5b5b69" stroke-width="0.7" stroke-linejoin="round" stroke-linecap="round"></path><path d="M40.8 -64.1 L73.3 -46.8 L73.3 -44.2 L40.8 -61.5 Z" fill="#72717d" stroke="#595966" stroke-width="0.7" stroke-linejoin="round" stroke-linecap="round"></path><path d="M21.1 -56 L53.2 -39" fill="none" stroke="#333850" stroke-width="0.5" stroke-linejoin="round" stroke-linecap="round"></path><path d="M32.2 -72.1 L64.2 -55.1" fill="none" stroke="#2b3047" stroke-width="0.5" stroke-linejoin="round" stroke-linecap="round"></path><path d="M23.3 -60.4 L55.4 -43.4" fill="none" stroke="#333850" stroke-width="0.5" stroke-linejoin="round" stroke-linecap="round"></path><path d="M34.4 -70.1 L66.4 -53.1" fill="none" stroke="#2b3047" stroke-width="0.5" stroke-linejoin="round" stroke-linecap="round"></path><path d="M25.5 -64.8 L57.6 -47.8" fill="none" stroke="#333850" stroke-width="0.5" stroke-linejoin="round" stroke-linecap="round"></path><path d="M36.6 -68.1 L68.7 -51.1" fill="none" stroke="#2b3047" stroke-width="0.5" stroke-linejoin="round" stroke-linecap="round"></path><path d="M27.7 -69.1 L59.8 -52.1" fill="none" stroke="#333850" stroke-width="0.5" stroke-linejoin="round" stroke-linecap="round"></path><path d="M38.8 -66 L70.9 -49" fill="none" stroke="#2b3047" stroke-width="0.5" stroke-linejoin="round" stroke-linecap="round"></path><path d="M29.9 -73.5 L62 -56.5" fill="none" stroke="#333850" stroke-width="0.5" stroke-linejoin="round" stroke-linecap="round"></path><path d="M41 -64 L73.1 -47" fill="none" stroke="#2b3047" stroke-width="0.5" stroke-linejoin="round" stroke-linecap="round"></path><path d="M29.7 -74.2 L62.2 -56.9" fill="none" stroke="#41465d" stroke-width="1.1" stroke-linejoin="round" stroke-linecap="round"></path><path d="M22.5 -33.9 L26.4 -31.8 L26.4 -42.8 L22.5 -44.9 Z" fill="#8b8994" stroke="#656572" stroke-width="0.7" stroke-linejoin="round" stroke-linecap="round"></path><path d="M23.1 -35 L25.8 -33.6 L25.8 -41.7 L23.1 -43.1 Z" fill="#ffd770" stroke="#edb24e" stroke-width="0.6" stroke-linejoin="round" stroke-linecap="round"></path><path d="M24.4 -34.3 L24.4 -42.4" fill="none" stroke="#776657" stroke-width="0.6" stroke-linejoin="round" stroke-linecap="round"></path><path d="M23.1 -39.3 L25.8 -37.9" fill="none" stroke="#776657" stroke-width="0.6" stroke-linejoin="round" stroke-linecap="round"></path><path d="M29.8 -30 L33.8 -27.9 L33.8 -38.9 L29.8 -41 Z" fill="#8b8994" stroke="#656572" stroke-width="0.7" stroke-linejoin="round" stroke-linecap="round"></path><path d="M30.4 -31.1 L33.1 -29.7 L33.1 -37.8 L30.4 -39.3 Z" fill="#ffd770" stroke="#edb24e" stroke-width="0.6" stroke-linejoin="round" stroke-linecap="round"></path><path d="M31.8 -30.4 L31.8 -38.5" fill="none" stroke="#776657" stroke-width="0.6" stroke-linejoin="round" stroke-linecap="round"></path><path d="M30.4 -35.4 L33.1 -34" fill="none" stroke="#776657" stroke-width="0.6" stroke-linejoin="round" stroke-linecap="round"></path><path d="M37.7 -25.8 L41.7 -23.7 L41.7 -34.7 L37.7 -36.8 Z" fill="#8b8994" stroke="#656572" stroke-width="0.7" stroke-linejoin="round" stroke-linecap="round"></path><path d="M38.4 -26.9 L41.1 -25.5 L41.1 -33.6 L38.4 -35 Z" fill="#3e475d" stroke="#343c51" stroke-width="0.6" stroke-linejoin="round" stroke-linecap="round"></path><path d="M39.7 -26.2 L39.7 -34.3" fill="none" stroke="#373f54" stroke-width="0.6" stroke-linejoin="round" stroke-linecap="round"></path><path d="M38.4 -31.2 L41.1 -29.8" fill="none" stroke="#373f54" stroke-width="0.6" stroke-linejoin="round" stroke-linecap="round"></path><path d="M45.1 -21.9 L49 -19.8 L49 -30.8 L45.1 -32.9 Z" fill="#8b8994" stroke="#656572" stroke-width="0.7" stroke-linejoin="round" stroke-linecap="round"></path><path d="M45.7 -23 L48.4 -21.6 L48.4 -29.7 L45.7 -31.2 Z" fill="#ffd770" stroke="#edb24e" stroke-width="0.6" stroke-linejoin="round" stroke-linecap="round"></path><path d="M47 -22.3 L47 -30.4" fill="none" stroke="#776657" stroke-width="0.6" stroke-linejoin="round" stroke-linecap="round"></path><path d="M45.7 -27.3 L48.4 -25.9" fill="none" stroke="#776657" stroke-width="0.6" stroke-linejoin="round" stroke-linecap="round"></path><path d="M22.5 -13.9 L26.4 -11.8 L26.4 -22.8 L22.5 -24.9 Z" fill="#8b8994" stroke="#656572" stroke-width="0.7" stroke-linejoin="round" stroke-linecap="round"></path><path d="M23.1 -15 L25.8 -13.6 L25.8 -21.7 L23.1 -23.1 Z" fill="#ffd770" stroke="#edb24e" stroke-width="0.6" stroke-linejoin="round" stroke-linecap="round"></path><path d="M24.4 -14.3 L24.4 -22.4" fill="none" stroke="#776657" stroke-width="0.6" stroke-linejoin="round" stroke-linecap="round"></path><path d="M23.1 -19.3 L25.8 -17.9" fill="none" stroke="#776657" stroke-width="0.6" stroke-linejoin="round" stroke-linecap="round"></path><path d="M45.1 -1.9 L49 0.2 L49 -10.8 L45.1 -12.9 Z" fill="#8b8994" stroke="#656572" stroke-width="0.7" stroke-linejoin="round" stroke-linecap="round"></path><path d="M45.7 -3 L48.4 -1.6 L48.4 -9.7 L45.7 -11.2 Z" fill="#3e475d" stroke="#343c51" stroke-width="0.6" stroke-linejoin="round" stroke-linecap="round"></path><path d="M47 -2.3 L47 -10.4" fill="none" stroke="#373f54" stroke-width="0.6" stroke-linejoin="round" stroke-linecap="round"></path><path d="M45.7 -7.3 L48.4 -5.9" fill="none" stroke="#373f54" stroke-width="0.6" stroke-linejoin="round" stroke-linecap="round"></path><path d="M55 -0.7 L59.6 -3.1 L59.6 -14.1 L55 -11.7 Z" fill="#8b8994" stroke="#656572" stroke-width="0.7" stroke-linejoin="round" stroke-linecap="round"></path><path d="M55.7 -2.5 L58.8 -4.2 L58.8 -12.3 L55.7 -10.7 Z" fill="#ffd770" stroke="#edb24e" stroke-width="0.6" stroke-linejoin="round" stroke-linecap="round"></path><path d="M57.3 -3.4 L57.3 -11.5" fill="none" stroke="#776657" stroke-width="0.6" stroke-linejoin="round" stroke-linecap="round"></path><path d="M55.7 -6.8 L58.8 -8.5" fill="none" stroke="#776657" stroke-width="0.6" stroke-linejoin="round" stroke-linecap="round"></path><path d="M55 -20.7 L59.6 -23.1 L59.6 -34.1 L55 -31.7 Z" fill="#8b8994" stroke="#656572" stroke-width="0.7" stroke-linejoin="round" stroke-linecap="round"></path><path d="M55.7 -22.5 L58.8 -24.2 L58.8 -32.3 L55.7 -30.7 Z" fill="#ffd770" stroke="#edb24e" stroke-width="0.6" stroke-linejoin="round" stroke-linecap="round"></path><path d="M57.3 -23.4 L57.3 -31.5" fill="none" stroke="#776657" stroke-width="0.6" stroke-linejoin="round" stroke-linecap="round"></path><path d="M55.7 -26.8 L58.8 -28.5" fill="none" stroke="#776657" stroke-width="0.6" stroke-linejoin="round" stroke-linecap="round"></path><path d="M31 -3.4 L34.4 -1.6 L34.4 -18.6 L31 -20.4 Z" fill="#8b8994" stroke="#656572" stroke-width="0.7" stroke-linejoin="round" stroke-linecap="round"></path><path d="M31.5 -3.1 L33.9 -1.8 L33.9 -17.8 L31.5 -19.1 Z" fill="#46373d" stroke="#352c35" stroke-width="0.6" stroke-linejoin="round" stroke-linecap="round"></path><path d="M32.4 -10.3 L33.4 -11.3 L34.4 -10.3 L33.4 -9.3 Z" fill="#edb24e"></path><path d="M37.4 0 L40.8 1.8 L40.8 -15.2 L37.4 -17 Z" fill="#8b8994" stroke="#656572" stroke-width="0.7" stroke-linejoin="round" stroke-linecap="round"></path><path d="M37.9 0.3 L40.3 1.6 L40.3 -14.4 L37.9 -15.7 Z" fill="#2f3449" stroke="#25293e" stroke-width="0.6" stroke-linejoin="round" stroke-linecap="round"></path><path d="M38.8 -6.9 L39.8 -7.9 L40.8 -6.9 L39.8 -5.9 Z" fill="#edb24e"></path><path d="M35.9 1.2 L35.9 -44.8" fill="none" stroke="#373d53" stroke-width="1" stroke-linejoin="round" stroke-linecap="round"></path><path d="M24.4 -20.8 L38.9 -13.1 L42.8 -17.1 L28.3 -24.8 Z" fill="#32374f" stroke="#21253b" stroke-width="0.8" stroke-linejoin="round" stroke-linecap="round"></path><path d="M24.1 -1.6 L39.3 6.5 L43.5 4.3 L28.3 -3.8 Z" fill="#6e605f" stroke="#574c4e" stroke-width="0.8" stroke-linejoin="round" stroke-linecap="round"></path><path d="M43.5 -64 L45.8 -65.3 L48.1 -64 L45.8 -62.8 Z" fill="#614c54" stroke="#41313b" stroke-width="0.8" stroke-linejoin="round" stroke-linecap="round"></path><path d="M43.5 -54 L45.8 -52.8 L45.8 -62.8 L43.5 -64 Z" fill="#594048" stroke="#3e2f39" stroke-width="0.8" stroke-linejoin="round" stroke-linecap="round"></path><path d="M45.8 -52.8 L48.1 -54 L48.1 -64 L45.8 -62.8 Z" fill="#4a3640" stroke="#3a2c37" stroke-width="0.8" stroke-linejoin="round" stroke-linecap="round"></path><path d="M9.5 0.4 L13.5 0.4 L13.1 -15.6 L9.9 -15.6 Z" fill="#463b43" stroke="#362f39" stroke-width="0.7" stroke-linejoin="round" stroke-linecap="round"></path><path d="M21.5 -21.1 L19.5 -16.2 L13 -14.7 L5.9 -14.1 L3.2 -18.9 L1.2 -23.8 L6.7 -27 L13.2 -28.2 L19.5 -25.9 Z" fill="#586352" stroke="#444c44" stroke-width="0.7" stroke-linejoin="round" stroke-linecap="round"></path><path d="M16.3 -25.4 L15 -22.1 L10.6 -21 L5.8 -20.7 L3.9 -23.9 L2.5 -27.2 L6.3 -29.4 L10.7 -30.2 L15 -28.7 Z" fill="#5d6759" stroke="#474f4a" stroke-width="0.7" stroke-linejoin="round" stroke-linecap="round"></path><path d="M23.3 -5 L21.7 -1.1 L16.5 0.1 L10.8 0.6 L8.6 -3.3 L7 -7.2 L11.5 -9.7 L16.7 -10.7 L21.7 -8.9 Z" fill="#3a4742" stroke="#2d3839" stroke-width="0.7" stroke-linejoin="round" stroke-linecap="round"></path><path d="M28.4 -1.6 L27 1.8 L22.5 2.9 L17.5 3.3 L15.6 -0.1 L14.2 -3.5 L18.1 -5.7 L22.6 -6.6 L27 -5 Z" fill="#506052" stroke="#3d4a44" stroke-width="0.7" stroke-linejoin="round" stroke-linecap="round"></path><path d="M15.7 -2.4 L17 -3.7 L18.3 -2.4 L17 -1.1 Z" fill="#7d637f"></path><path d="M18.6 -3.5 L19.9 -4.8 L21.2 -3.5 L19.9 -2.2 Z" fill="#82765e"></path><path d="M15.1 -1 L16.4 -2.3 L17.7 -1 L16.4 0.3 Z" fill="#777e75"></path><path d="M13.8 -2.8 L15.1 -4.1 L16.4 -2.8 L15.1 -1.5 Z" fill="#6e5a7e"></path><path d="M17.9 1 L19.2 -0.3 L20.5 1 L19.2 2.3 Z" fill="#7d637f"></path><path d="M14.9 -0.7 L16.2 -2 L17.5 -0.7 L16.2 0.6 Z" fill="#82765e"></path><path d="M17.4 1.4 L18.7 0.1 L20 1.4 L18.7 2.7 Z" fill="#777e75"></path><path d="M20.3 -1.7 L21.6 -3 L22.9 -1.7 L21.6 -0.4 Z" fill="#6e5a7e"></path></g></svg>