<svg xmlns="http://www.w3.org/2000/svg" viewBox="0 0 256 256" width="256" height="256"><g transform="translate(53.909651329429444 192.36013521049267) scale(1.9403811255825976)"><path d="M52.9 9.8 L52.9 -45.2 Z" fill="none" stroke="#54545d" stroke-width="0.8" stroke-linejoin="round" stroke-linecap="round"></path><path d="M52 9.8 L53.8 9.8 L53.8 -45.2 L52 -45.2 Z" fill="#66656c" stroke="#4b4c56" stroke-width="0.5" stroke-linejoin="round" stroke-linecap="round"></path><path d="M61.7 5.2 L61.7 -49.8 Z" fill="none" stroke="#54545d" stroke-width="0.8" stroke-linejoin="round" stroke-linecap="round"></path><path d="M60.8 5.2 L62.6 5.2 L62.6 -49.8 L60.8 -49.8 Z" fill="#66656c" stroke="#4b4c56" stroke-width="0.5" stroke-linejoin="round" stroke-linecap="round"></path><path d="M70.5 0.5 L70.5 -54.5 Z" fill="none" stroke="#54545d" stroke-width="0.8" stroke-linejoin="round" stroke-linecap="round"></path><path d="M69.6 0.5 L71.4 0.5 L71.4 -54.5 L69.6 -54.5 Z" fill="#66656c" stroke="#4b4c56" stroke-width="0.5" stroke-linejoin="round" stroke-linecap="round"></path><path d="M52.5 -45.9 L70.8 -55.6 L70.8 -53.8 L52.5 -44.1 Z" fill="#66656c" stroke="#4b4c56" stroke-width="0.5" stroke-linejoin="round" stroke-linecap="round"></path><path d="M52.5 -32.1 L70.8 -41.8 L70.8 -40 L52.5 -30.3 Z" fill="#66656c" stroke="#4b4c56" stroke-width="0.5" stroke-linejoin="round" stroke-linecap="round"></path><path d="M52.5 -18.4 L70.8 -28.1 L70.8 -26.3 L52.5 -16.6 Z" fill="#66656c" stroke="#4b4c56" stroke-width="0.5" stroke-linejoin="round" stroke-linecap="round"></path><path d="M52.5 -4.6 L70.8 -14.3 L70.8 -12.5 L52.5 -2.8 Z" fill="#66656c" stroke="#4b4c56" stroke-width="0.5" stroke-linejoin="round" stroke-linecap="round"></path><path d="M61.7 -37.1 L70.5 -55.5 L70.5 -53.5 L61.7 -35.1 Z" fill="#5f5f67"></path><path d="M52.9 -18.7 L61.7 -37.1 L61.7 -35.1 L52.9 -16.7 Z" fill="#5f5f67"></path><path d="M61.7 -9.6 L70.5 -28 L70.5 -26 L61.7 -7.6 Z" fill="#5f5f67"></path><path d="M51.7 -46 L61.8 -51.3 L61.8 -48.1 L51.7 -42.8 Z" fill="#6e605b" stroke="#52484a" stroke-width="0.6" stroke-linejoin="round" stroke-linecap="round"></path><path d="M24.4 10.5 L33.6 15.4 L33.6 6.4 L24.4 -0.5 Z" fill="#6b493c" stroke="#453131" stroke-width="0.7" stroke-linejoin="round" stroke-linecap="round"></path><path d="M33.6 15.4 L39.3 12.3 L39.3 3.3 L33.6 6.4 Z" fill="#593d36" stroke="#402e2f" stroke-width="0.7" stroke-linejoin="round" stroke-linecap="round"></path><path d="M24.4 -0.5 L30.2 -5 L39.3 3.3 L33.6 6.4 Z" fill="#4e3632" stroke="#402e2f" stroke-width="0.7" stroke-linejoin="round" stroke-linecap="round"></path><path d="M29.1 0.8 L32.1 -1.2 L35.1 0.8 L32.1 2.8 Z" fill="#5e585e"></path><path d="M32.5 -1 L35.5 -3 L38.5 -1 L35.5 1 Z" fill="#4f474d"></path><path d="M26.9 -2.5 L29.9 -4.5 L32.9 -2.5 L29.9 -0.5 Z" fill="#656067"></path><path d="M27.4 -1.1 L30.4 -3.1 L33.4 -1.1 L30.4 0.9 Z" fill="#5e585e"></path><path d="M32.4 0.4 L35.4 -1.6 L38.4 0.4 L35.4 2.4 Z" fill="#4f474d"></path><path d="M35.1 13.4 L39.7 11 L43.9 13.2 L39.3 15.6 Z" fill="#736766" stroke="#463e43" stroke-width="0.7" stroke-linejoin="round" stroke-linecap="round"></path><path d="M35.1 15.8 L39.3 18 L39.3 15.6 L35.1 13.4 Z" fill="#6e605b" stroke="#463e43" stroke-width="0.7" stroke-linejoin="round" stroke-linecap="round"></path><path d="M39.3 18 L43.9 15.6 L43.9 13.2 L39.3 15.6 Z" fill="#5b5050" stroke="#403a40" stroke-width="0.7" stroke-linejoin="round" stroke-linecap="round"></path><path d="M35.1 10.4 L39.7 8 L43.9 10.2 L39.3 12.6 Z" fill="#736766" stroke="#463e43" stroke-width="0.7" stroke-linejoin="round" stroke-linecap="round"></path><path d="M35.1 12.8 L39.3 15 L39.3 12.6 L35.1 10.4 Z" fill="#6e605b" stroke="#463e43" stroke-width="0.7" stroke-linejoin="round" stroke-linecap="round"></path><path d="M39.3 15 L43.9 12.6 L43.9 10.2 L39.3 12.6 Z" fill="#5b5050" stroke="#403a40" stroke-width="0.7" stroke-linejoin="round" stroke-linecap="round"></path><path d="M35.1 7.4 L39.7 5 L43.9 7.2 L39.3 9.6 Z" fill="#736766" stroke="#463e43" stroke-width="0.7" stroke-linejoin="round" stroke-linecap="round"></path><path d="M35.1 9.8 L39.3 12 L39.3 9.6 L35.1 7.4 Z" fill="#6e605b" stroke="#463e43" stroke-width="0.7" stroke-linejoin="round" stroke-linecap="round"></path><path d="M39.3 12 L43.9 9.6 L43.9 7.2 L39.3 9.6 Z" fill="#5b5050" stroke="#403a40" stroke-width="0.7" stroke-linejoin="round" stroke-linecap="round"></path><path d="M25.9 5.5 L28.3 5.5 L28.3 -4.5 L25.9 -4.5 Z" fill="#564c50"></path><path d="M24.4 -5 L29.8 -2.1 L29.8 -10.1 L24.4 -13 Z" fill="#858289" stroke="#5f5e68" stroke-width="0.7" stroke-linejoin="round" stroke-linecap="round"></path><path d="M25 -6.6 L28.6 -4.7 L28.6 -5.6 L25 -7.5 Z" fill="#575660"></path><path d="M25 -8.6 L28.6 -6.7 L28.6 -7.6 L25 -9.5 Z" fill="#575660"></path><path d="M25 -10.6 L28.6 -8.7 L28.6 -9.6 L25 -11.5 Z" fill="#575660"></path><path d="M23 -37.2 L25.5 -35.8 L25.5 -44.7 L23 -46 Z" fill="#777c8f" stroke="#5d6174" stroke-width="0.6" stroke-linejoin="round" stroke-linecap="round"></path><path d="M40.1 -6.2 L42.6 -4.9 L42.6 -14.5 L40.1 -15.8 Z" fill="#777c8f" stroke="#5d6174" stroke-width="0.6" stroke-linejoin="round" stroke-linecap="round"></path></g></svg>