<svg xmlns="http://www.w3.org/2000/svg" viewBox="0 0 256 256" width="256" height="256"><g transform="translate(45.4 186.3) scale(2.1594)"><path d="M50 15.4 L50 -47.6 Z" fill="none" stroke="#54545d" stroke-width="0.8" stroke-linejoin="round" stroke-linecap="round"></path><path d="M49.1 15.4 L50.9 15.4 L50.9 -47.6 L49.1 -47.6 Z" fill="#66656c" stroke="#4b4c56" stroke-width="0.5" stroke-linejoin="round" stroke-linecap="round"></path><path d="M63.2 8.4 L63.2 -54.6 Z" fill="none" stroke="#54545d" stroke-width="0.8" stroke-linejoin="round" stroke-linecap="round"></path><path d="M62.3 8.4 L64.1 8.4 L64.1 -54.6 L62.3 -54.6 Z" fill="#66656c" stroke="#4b4c56" stroke-width="0.5" stroke-linejoin="round" stroke-linecap="round"></path><path d="M76.4 1.4 L76.4 -61.6 Z" fill="none" stroke="#54545d" stroke-width="0.8" stroke-linejoin="round" stroke-linecap="round"></path><path d="M75.5 1.4 L77.3 1.4 L77.3 -61.6 L75.5 -61.6 Z" fill="#66656c" stroke="#4b4c56" stroke-width="0.5" stroke-linejoin="round" stroke-linecap="round"></path><path d="M49.4 -48.2 L76.9 -62.8 L76.9 -61 L49.4 -46.4 Z" fill="#66656c" stroke="#4b4c56" stroke-width="0.5" stroke-linejoin="round" stroke-linecap="round"></path><path d="M49.4 -32.5 L76.9 -47 L76.9 -45.2 L49.4 -30.7 Z" fill="#66656c" stroke="#4b4c56" stroke-width="0.5" stroke-linejoin="round" stroke-linecap="round"></path><path d="M49.4 -16.7 L76.9 -31.3 L76.9 -29.5 L49.4 -14.9 Z" fill="#66656c" stroke="#4b4c56" stroke-width="0.5" stroke-linejoin="round" stroke-linecap="round"></path><path d="M49.4 -1 L76.9 -15.5 L76.9 -13.7 L49.4 0.8 Z" fill="#66656c" stroke="#4b4c56" stroke-width="0.5" stroke-linejoin="round" stroke-linecap="round"></path><path d="M63.2 -39.9 L76.4 -62.6 L76.4 -60.6 L63.2 -37.9 Z" fill="#5f5f67"></path><path d="M50 -17.1 L63.2 -39.9 L63.2 -37.9 L50 -15.1 Z" fill="#5f5f67"></path><path d="M63.2 -8.4 L76.4 -31.1 L76.4 -29.1 L63.2 -6.4 Z" fill="#5f5f67"></path><path d="M48.7 -48.3 L63.8 -56.3 L63.8 -53.1 L48.7 -45.1 Z" fill="#6e605b" stroke="#52484a" stroke-width="0.6" stroke-linejoin="round" stroke-linecap="round"></path><path d="M13.4 5.1 L22.5 9.9 L22.5 0.9 L13.4 -5.9 Z" fill="#6b493c" stroke="#453131" stroke-width="0.7" stroke-linejoin="round" stroke-linecap="round"></path><path d="M22.5 9.9 L27.5 7.3 L27.5 -1.7 L22.5 0.9 Z" fill="#593d36" stroke="#402e2f" stroke-width="0.7" stroke-linejoin="round" stroke-linecap="round"></path><path d="M13.4 -5.9 L18.3 -10.1 L27.5 -1.7 L22.5 0.9 Z" fill="#4e3632" stroke="#402e2f" stroke-width="0.7" stroke-linejoin="round" stroke-linecap="round"></path><path d="M17.4 -5.2 L20.4 -7.2 L23.4 -5.2 L20.4 -3.2 Z" fill="#5e585e"></path><path d="M16.3 -6.2 L19.3 -8.2 L22.3 -6.2 L19.3 -4.2 Z" fill="#4f474d"></path><path d="M20.3 -2.3 L23.3 -4.3 L26.3 -2.3 L23.3 -0.3 Z" fill="#656067"></path><path d="M16 -7.6 L19 -9.6 L22 -7.6 L19 -5.6 Z" fill="#5e585e"></path><path d="M14.6 -8.6 L17.6 -10.6 L20.6 -8.6 L17.6 -6.6 Z" fill="#4f474d"></path><path d="M24.1 7.9 L28.6 5.5 L30.5 6.5 L26 8.9 Z" fill="#736766" stroke="#463e43" stroke-width="0.7" stroke-linejoin="round" stroke-linecap="round"></path><path d="M24.1 10.3 L26 11.3 L26 8.9 L24.1 7.9 Z" fill="#6e605b" stroke="#463e43" stroke-width="0.7" stroke-linejoin="round" stroke-linecap="round"></path><path d="M26 11.3 L30.5 8.9 L30.5 6.5 L26 8.9 Z" fill="#5b5050" stroke="#403a40" stroke-width="0.7" stroke-linejoin="round" stroke-linecap="round"></path><path d="M24.1 4.9 L28.6 2.5 L30.5 3.5 L26 5.9 Z" fill="#736766" stroke="#463e43" stroke-width="0.7" stroke-linejoin="round" stroke-linecap="round"></path><path d="M24.1 7.3 L26 8.3 L26 5.9 L24.1 4.9 Z" fill="#6e605b" stroke="#463e43" stroke-width="0.7" stroke-linejoin="round" stroke-linecap="round"></path><path d="M26 8.3 L30.5 5.9 L30.5 3.5 L26 5.9 Z" fill="#5b5050" stroke="#403a40" stroke-width="0.7" stroke-linejoin="round" stroke-linecap="round"></path><path d="M24.1 1.9 L28.6 -0.5 L30.5 0.5 L26 2.9 Z" fill="#736766" stroke="#463e43" stroke-width="0.7" stroke-linejoin="round" stroke-linecap="round"></path><path d="M24.1 4.3 L26 5.3 L26 2.9 L24.1 1.9 Z" fill="#6e605b" stroke="#463e43" stroke-width="0.7" stroke-linejoin="round" stroke-linecap="round"></path><path d="M26 5.3 L30.5 2.9 L30.5 0.5 L26 2.9 Z" fill="#5b5050" stroke="#403a40" stroke-width="0.7" stroke-linejoin="round" stroke-linecap="round"></path><path d="M14.1 0.4 L16.5 0.4 L16.5 -9.6 L14.1 -9.6 Z" fill="#564c50"></path><path d="M12.6 -10 L17.9 -7.2 L17.9 -15.2 L12.6 -18 Z" fill="#858289" stroke="#5f5e68" stroke-width="0.7" stroke-linejoin="round" stroke-linecap="round"></path><path d="M13.2 -11.7 L16.8 -9.8 L16.8 -10.7 L13.2 -12.6 Z" fill="#575660"></path><path d="M13.2 -13.7 L16.8 -11.8 L16.8 -12.7 L13.2 -14.6 Z" fill="#575660"></path><path d="M13.2 -15.7 L16.8 -13.8 L16.8 -14.7 L13.2 -16.6 Z" fill="#575660"></path><path d="M13.7 -12.6 L18.4 -10.1 L18.4 -17.5 L13.7 -20 Z" fill="#777c8f" stroke="#5d6174" stroke-width="0.6" stroke-linejoin="round" stroke-linecap="round"></path><path d="M25.5 -22.3 L30.2 -19.8 L30.2 -27.2 L25.5 -29.7 Z" fill="#777c8f" stroke="#5d6174" stroke-width="0.6" stroke-linejoin="round" stroke-linecap="round"></path><path d="M37.4 -32 L42 -29.5 L42 -36.9 L37.4 -39.4 Z" fill="#777c8f" stroke="#5d6174" stroke-width="0.6" stroke-linejoin="round" stroke-linecap="round"></path></g></svg>