<svg xmlns="http://www.w3.org/2000/svg" viewBox="0 0 256 256" width="256" height="256"><g transform="translate(22.510126420178633 169.62753507014554) scale(2.762715566969452)"><path d="M21.6 11.1 L28.6 7.1 L35.6 11.1 L28.6 15.1 Z" fill="#5f5d56"></path><path d="M36.2 -3.4 L43.2 -7.4 L50.2 -3.4 L43.2 0.6 Z" fill="#5f5d56"></path><path d="M36 -11.4 L43 -15.4 L50 -11.4 L43 -7.4 Z" fill="#5f5d56"></path><path d="M57.8 1.8 L64.8 -2.2 L71.8 1.8 L64.8 5.8 Z" fill="#5f5d56"></path><path d="M53.2 0.1 L60.2 -3.9 L67.2 0.1 L60.2 4.1 Z" fill="#5f5d56"></path><path d="M19.7 6.1 L26.7 2.1 L33.7 6.1 L26.7 10.1 Z" fill="#5f5d56"></path><path d="M15.4 7 L22.4 3 L29.4 7 L22.4 11 Z" fill="#5f5d56"></path><path d="M8.8 0.5 L15.8 -3.5 L22.8 0.5 L15.8 4.5 Z" fill="#5f5d56"></path><path d="M21.7 -15.3 L24.8 -13.6 L24.8 -22.5 L21.7 -24.2 Z" fill="#2d3247" stroke="#262c40" stroke-width="0.6" stroke-linejoin="round" stroke-linecap="round"></path><path d="M20.7 -17.8 L25.8 -15.9 L25.8 -17.5 L20.7 -19.5 Z" fill="#5e504e" stroke="#453c40" stroke-width="0.6" stroke-linejoin="round" stroke-linecap="round"></path><path d="M20.7 -21.7 L25.8 -19.7 L25.8 -21.4 L20.7 -23.3 Z" fill="#5e504e" stroke="#453c40" stroke-width="0.6" stroke-linejoin="round" stroke-linecap="round"></path><path d="M44.3 -3.3 L47.4 -1.6 L47.4 -10.5 L44.3 -12.2 Z" fill="#2d3247" stroke="#262c40" stroke-width="0.6" stroke-linejoin="round" stroke-linecap="round"></path><path d="M43.3 -5.8 L48.4 -3.9 L48.4 -5.6 L43.3 -7.5 Z" fill="#5e504e" stroke="#453c40" stroke-width="0.6" stroke-linejoin="round" stroke-linecap="round"></path><path d="M43.3 -9.7 L48.4 -7.7 L48.4 -9.4 L43.3 -11.4 Z" fill="#5e504e" stroke="#453c40" stroke-width="0.6" stroke-linejoin="round" stroke-linecap="round"></path><path d="M53.7 -2.6 L56.7 -4.2 L56.7 -13.1 L53.7 -11.5 Z" fill="#2d3247" stroke="#262c40" stroke-width="0.6" stroke-linejoin="round" stroke-linecap="round"></path><path d="M52.8 -4.1 L57.6 -7.4 L57.6 -9.1 L52.8 -5.8 Z" fill="#5e504e" stroke="#453c40" stroke-width="0.6" stroke-linejoin="round" stroke-linecap="round"></path><path d="M52.8 -8 L57.6 -11.3 L57.6 -13 L52.8 -9.7 Z" fill="#5e504e" stroke="#453c40" stroke-width="0.6" stroke-linejoin="round" stroke-linecap="round"></path><path d="M63.1 -7.6 L65.9 -9.1 L65.9 -17.9 L63.1 -16.4 Z" fill="#2d3247" stroke="#262c40" stroke-width="0.6" stroke-linejoin="round" stroke-linecap="round"></path><path d="M62.3 -9.2 L66.7 -12.2 L66.7 -13.9 L62.3 -10.8 Z" fill="#5e504e" stroke="#453c40" stroke-width="0.6" stroke-linejoin="round" stroke-linecap="round"></path><path d="M62.3 -13 L66.7 -16.1 L66.7 -17.8 L62.3 -14.7 Z" fill="#5e504e" stroke="#453c40" stroke-width="0.6" stroke-linejoin="round" stroke-linecap="round"></path><path d="M32.8 -5.9 L37.1 -5.5 L37.1 -8.9 L32.8 -9.3 Z" fill="#5e504e" stroke="#453c40" stroke-width="0.6" stroke-linejoin="round" stroke-linecap="round"></path><path d="M28.3 -35.2 L31.6 -38.3 L34.8 -35.3 L31.9 -32.3 Z" fill="#242639" stroke="#66687b" stroke-width="0.6" stroke-linejoin="round" stroke-linecap="round"></path><path d="M42.5 -38.1 L45.9 -41.3 L49.1 -38.3 L46.2 -35.2 Z" fill="#242639" stroke="#66687b" stroke-width="0.6" stroke-linejoin="round" stroke-linecap="round"></path><path d="M47.1 -29.8 L50.4 -33 L53.6 -30 L50.7 -26.9 Z" fill="#242639" stroke="#66687b" stroke-width="0.6" stroke-linejoin="round" stroke-linecap="round"></path><path d="M37.9 15.4 L40 9.6 L40.1 15.4 Z" fill="#56594b" stroke="#41453f" stroke-width="0.5" stroke-linejoin="round" stroke-linecap="round"></path><path d="M34.4 14 L34.6 7.5 L36.6 14 Z" fill="#56594b" stroke="#41453f" stroke-width="0.5" stroke-linejoin="round" stroke-linecap="round"></path><path d="M41.3 12.7 L42.8 7.7 L43.5 12.7 Z" fill="#56594b" stroke="#41453f" stroke-width="0.5" stroke-linejoin="round" stroke-linecap="round"></path><path d="M36.8 12.7 L38.3 4.3 L39 12.7 Z" fill="#56594b" stroke="#41453f" stroke-width="0.5" stroke-linejoin="round" stroke-linecap="round"></path><path d="M34 12.6 L36.2 8.1 L36.2 12.6 Z" fill="#56594b" stroke="#41453f" stroke-width="0.5" stroke-linejoin="round" stroke-linecap="round"></path><path d="M38.1 15 L40.4 7.6 L40.3 15 Z" fill="#56594b" stroke="#41453f" stroke-width="0.5" stroke-linejoin="round" stroke-linecap="round"></path><path d="M37.9 10.8 L37.8 3.4 L40.1 10.8 Z" fill="#56594b" stroke="#41453f" stroke-width="0.5" stroke-linejoin="round" stroke-linecap="round"></path><path d="M38.5 16.4 L38.9 11.6 L40.7 16.4 Z" fill="#56594b" stroke="#41453f" stroke-width="0.5" stroke-linejoin="round" stroke-linecap="round"></path><path d="M35.5 14.7 L36.4 6.2 L37.7 14.7 Z" fill="#56594b" stroke="#41453f" stroke-width="0.5" stroke-linejoin="round" stroke-linecap="round"></path><path d="M39.2 15.9 L40.5 10 L41.4 15.9 Z" fill="#56594b" stroke="#41453f" stroke-width="0.5" stroke-linejoin="round" stroke-linecap="round"></path><path d="M24.1 -3.7 L25.7 -11.2 L26.3 -3.7 Z" fill="#4f5848" stroke="#3d433e" stroke-width="0.5" stroke-linejoin="round" stroke-linecap="round"></path><path d="M24.2 0.5 L25.4 -8.4 L26.4 0.5 Z" fill="#4f5848" stroke="#3d433e" stroke-width="0.5" stroke-linejoin="round" stroke-linecap="round"></path><path d="M22.3 0.3 L22.3 -5 L24.5 0.3 Z" fill="#4f5848" stroke="#3d433e" stroke-width="0.5" stroke-linejoin="round" stroke-linecap="round"></path><path d="M23.7 -4.9 L26.3 -11.4 L25.9 -4.9 Z" fill="#4f5848" stroke="#3d433e" stroke-width="0.5" stroke-linejoin="round" stroke-linecap="round"></path><path d="M25.9 -0.5 L25.6 -7.9 L28.1 -0.5 Z" fill="#4f5848" stroke="#3d433e" stroke-width="0.5" stroke-linejoin="round" stroke-linecap="round"></path><path d="M24.1 -3.9 L25.7 -9.4 L26.3 -3.9 Z" fill="#4f5848" stroke="#3d433e" stroke-width="0.5" stroke-linejoin="round" stroke-linecap="round"></path><path d="M19.4 -0.3 L21.1 -4.5 L21.6 -0.3 Z" fill="#4f5848" stroke="#3d433e" stroke-width="0.5" stroke-linejoin="round" stroke-linecap="round"></path><path d="M59.5 1.7 L59.9 -5.6 L61.7 1.7 Z" fill="#4f5848" stroke="#3d433e" stroke-width="0.5" stroke-linejoin="round" stroke-linecap="round"></path><path d="M62.8 7.6 L64.7 0.8 L65 7.6 Z" fill="#4f5848" stroke="#3d433e" stroke-width="0.5" stroke-linejoin="round" stroke-linecap="round"></path><path d="M61.3 3.4 L61.8 -4.6 L63.5 3.4 Z" fill="#4f5848" stroke="#3d433e" stroke-width="0.5" stroke-linejoin="round" stroke-linecap="round"></path><path d="M60.6 8 L62.9 1.5 L62.8 8 Z" fill="#4f5848" stroke="#3d433e" stroke-width="0.5" stroke-linejoin="round" stroke-linecap="round"></path><path d="M55.8 5.9 L56.2 -1.7 L58 5.9 Z" fill="#4f5848" stroke="#3d433e" stroke-width="0.5" stroke-linejoin="round" stroke-linecap="round"></path><path d="M63.3 3.9 L65.4 -1.3 L65.5 3.9 Z" fill="#4f5848" stroke="#3d433e" stroke-width="0.5" stroke-linejoin="round" stroke-linecap="round"></path><path d="M54.3 4.5 L55.5 -3.1 L56.5 4.5 Z" fill="#4f5848" stroke="#3d433e" stroke-width="0.5" stroke-linejoin="round" stroke-linecap="round"></path><path d="M26.7 -28 L28.7 -27 L29.9 -16.2 L27.9 -17.2 Z" fill="#585865" stroke="#454655" stroke-width="0.6" stroke-linejoin="round" stroke-linecap="round"></path></g></svg>