<svg xmlns="http://www.w3.org/2000/svg" viewBox="0 0 128 128" width="128" height="128"><g fill="none" stroke="#000000" stroke-width="1" stroke-linecap="round" stroke-linejoin="round"><path d="M55.36 73.7 L59.68 75.99 L59.68 59.99 L71.2 66.1 L71.2 82.1 Z"></path><path d="M71.2 82.1 L71.2 60.1"></path><path d="M55.36 73.7 L55.36 51.7"></path><path d="M55.36 51.7 L71.2 60.1"></path><path d="M71.2 82.1 L79.84 77.52 L79.84 55.52 L75.52 49.81 L71.2 60.1 Z"></path><path d="M53.2 79.43 L64.72 85.54 L64.72 75.54 L53.2 69.43 Z"></path><path d="M64.72 85.54 L71.2 82.1 L71.2 66.1 L64.72 75.54 Z"></path><path d="M55 77.38 L58.24 79.1 L58.24 74.1 L55 72.38 Z"></path><path d="M60.4 83.25 L62.92 84.58 L62.92 76.08 L60.4 74.75 Z"></path><path d="M66.52 81.58 L69.04 80.25 L69.04 74.75 L66.52 76.08 Z"></path><path d="M56.31 60.71 L58.53 61.88 L58.53 55.88 L56.31 54.71 Z"></path><path d="M59.8 62.56 L62.01 63.73 L62.01 57.73 L59.8 56.56 Z"></path><path d="M64.07 64.82 L66.29 66 L66.29 60 L64.07 58.82 Z"></path><path d="M68.35 67.09 L70.57 68.26 L70.57 62.26 L68.35 61.09 Z"></path><path d="M56.31 71.21 L58.53 72.38 L58.53 66.38 L56.31 65.21 Z"></path><path d="M73.27 78 L75.52 76.81 L75.52 70.81 L73.27 72 Z"></path><path d="M73.27 67.5 L75.52 66.31 L75.52 60.31 L73.27 61.5 Z"></path></g><g fill="none" stroke="#000000" stroke-width="2" stroke-linecap="round" stroke-linejoin="round"><path d="M53.56 51.7 L71.2 61.05 L76.42 50.29 L58.78 40.94 Z"></path><path d="M58.78 40.94 L76.42 50.29 L81.64 55.52 L64 46.17 Z"></path><path d="M55.36 73.7 L59.68 75.99"></path><path d="M71.2 82.1 L79.84 77.52"></path><path d="M55.36 73.7 L55.36 51.7"></path><path d="M71.2 82.1 L71.2 60.1"></path><path d="M79.84 77.52 L79.84 55.52"></path><path d="M51.4 69.43 L64.72 76.49 L72.1 66.58 L58.78 59.52 Z"></path><path d="M53.2 79.43 L64.72 85.54 L71.2 82.1"></path><path d="M53.2 79.43 L53.2 69.43"></path><path d="M64.72 85.54 L64.72 75.54"></path></g></svg>